<?xml version="1.0" ?><svg height="400px" version="1.1" viewBox="0 0 400 400" width="400px" xmlns="http://www.w3.org/2000/svg" xmlns:xlink="http://www.w3.org/1999/xlink"><title/><desc/><defs><rect height="65" id="path-1" rx="20" width="43.6363636" x="98" y="0"/><filter filterUnits="objectBoundingBox" height="200%" id="filter-2" width="200%" x="-50%" y="-50%"><feOffset dx="0" dy="2" in="SourceAlpha" result="shadowOffsetOuter1"/><feGaussianBlur in="shadowOffsetOuter1" result="shadowBlurOuter1" stdDeviation="2"/><feColorMatrix in="shadowBlurOuter1" type="matrix" values="0 0 0 0 0   0 0 0 0 0   0 0 0 0 0  0 0 0 0.5 0"/></filter><ellipse cx="120" cy="248.5" id="path-3" rx="120" ry="31.5"/><filter filterUnits="objectBoundingBox" height="200%" id="filter-4" width="200%" x="-50%" y="-50%"><feOffset dx="0" dy="2" in="SourceAlpha" result="shadowOffsetOuter1"/><feGaussianBlur in="shadowOffsetOuter1" result="shadowBlurOuter1" stdDeviation="2"/><feColorMatrix in="shadowBlurOuter1" type="matrix" values="0 0 0 0 0   0 0 0 0 0   0 0 0 0 0  0 0 0 0.5 0"/></filter><path d="M120,260.081578 C131.045695,260.081578 140,251.824607 140,241.639117 C140,231.453628 100,231.453628 100,241.639117 C100,251.824607 108.954305,260.081578 120,260.081578 Z" id="path-5"/><filter filterUnits="objectBoundingBox" height="200%" id="filter-6" width="200%" x="-50%" y="-50%"><feOffset dx="0" dy="2" in="SourceAlpha" result="shadowOffsetOuter1"/><feGaussianBlur in="shadowOffsetOuter1" result="shadowBlurOuter1" stdDeviation="2"/><feColorMatrix in="shadowBlurOuter1" type="matrix" values="0 0 0 0 0   0 0 0 0 0   0 0 0 0 0  0 0 0 0.5 0"/></filter></defs><g fill="none" fill-rule="evenodd" id="Page-1" stroke="none" stroke-width="1"><g id="bell"><path d="M200,400 C310.45695,400 400,310.45695 400,200 C400,89.54305 310.45695,0 200,0 C89.54305,0 0,89.54305 0,200 C0,310.45695 89.54305,400 200,400 Z" fill="#82A3A1" id="background"/><g id="Group-4" transform="translate(80.000000, 60.000000)"><g id="Rectangle-4"><use fill="black" fill-opacity="1" filter="url(#filter-2)" xlink:href="#path-1"/><use fill="#545E75" fill-rule="evenodd" xlink:href="#path-1"/></g><polygon fill="#F2ECD2" id="Combined-Shape" points="10.9090909 194.382979 21.8181818 128 218.181818 128 229.090909 194.382979 240 248 0 248"/><path d="M218.181818,130.5 C218.181818,76.6522369 174.224321,33 120,33 C65.7756791,33 21.8181818,76.6522369 21.8181818,130.5 L218.181818,130.5 Z" fill="#F2ECD2" id="Path"/><g id="Oval-7"><use fill="black" fill-opacity="1" filter="url(#filter-4)" xlink:href="#path-3"/><use fill="#545E75" fill-rule="evenodd" xlink:href="#path-3"/></g><g id="Oval-8"><use fill="black" fill-opacity="1" filter="url(#filter-6)" xlink:href="#path-5"/><use fill="#EE7674" fill-rule="evenodd" xlink:href="#path-5"/></g></g></g></g></svg>