<?xml version="1.0" encoding="iso-8859-1"?>
<!-- Generator: Adobe Illustrator 19.0.0, SVG Export Plug-In . SVG Version: 6.00 Build 0)  -->
<svg version="1.1" id="Layer_1" xmlns="http://www.w3.org/2000/svg" xmlns:xlink="http://www.w3.org/1999/xlink" x="0px" y="0px"
	 viewBox="0 0 496.182 496.182" style="enable-background:new 0 0 496.182 496.182;" xml:space="preserve">
<path style="fill:#4ABC96;" d="M248.094,0C111.074,0,0,111.063,0,248.091c0,137.012,111.074,248.091,248.094,248.091
	c137.012,0,248.088-111.079,248.088-248.091C496.182,111.063,385.106,0,248.094,0z"/>
<path style="fill:#F3F2D9;" d="M427.732,240.863c0-111.035-80.431-164.167-179.643-164.167
	c-99.209,0-179.639,53.132-179.639,164.167c0,44.001,16.75,41.649,16.75,117.782c0,36.698-3.891,55.156-7.922,69.359
	c44.485,42.249,104.621,68.177,170.815,68.177c67.016,0,127.816-26.586,172.46-69.772c-4.542-18.527-9.561-37.794-9.561-67.764
	C410.993,303.919,427.732,284.864,427.732,240.863z"/>
<path style="fill:#E7E4B9;" d="M250.4,110.872c-66.541,0-120.673,54.122-120.673,120.661c0,66.55,54.132,120.683,120.673,120.683
	c66.538,0,120.672-54.133,120.672-120.683C371.071,164.994,316.938,110.872,250.4,110.872z M250.4,345.084
	c-62.605,0-113.529-50.94-113.529-113.55c0-62.605,50.924-113.53,113.529-113.53s113.528,50.924,113.528,113.53
	C363.928,294.144,313.005,345.084,250.4,345.084z"/>
<polygon style="fill:#D7AD8C;" points="194.562,330.09 249.279,376.887 300.036,331.678 "/>
<g>
	<path style="fill:#E7E4B9;" d="M308.07,329.172c-1.165-1.593-3.396-1.934-4.976-0.769c-1.859,1.362-45.487,33.516-56.827,51.319
		c-1.055,1.67-0.561,3.873,1.1,4.934c0.593,0.379,1.263,0.561,1.912,0.561c1.186,0,2.341-0.588,3.011-1.654
		c10.626-16.687,54.583-49.083,55.022-49.402C308.904,332.985,309.236,330.754,308.07,329.172z"/>
	<path style="fill:#E7E4B9;" d="M182.398,318.886c-1.592-1.165-3.835-0.819-4.988,0.77c-1.178,1.593-0.824,3.824,0.77,4.989
		c1.321,0.971,104.606,77.288,148.874,158.699c2.335-0.783,4.654-1.6,6.957-2.451C289.962,398.355,187.879,322.896,182.398,318.886z
		"/>
</g>
<path style="fill:#E9C29C;" d="M250.4,116.807c-63.374,0-114.728,51.368-114.728,114.727c0,63.385,51.354,114.738,114.728,114.738
	c63.363,0,114.727-51.353,114.727-114.738C365.126,168.175,313.763,116.807,250.4,116.807z"/>
<path style="fill:#343433;" d="M297.136,201.038c-12.001,0-21.727,10.286-21.727,22.968c0,12.67,9.726,22.945,21.727,22.945
	c12,0,21.746-10.275,21.746-22.945C318.882,211.324,309.136,201.038,297.136,201.038z"/>
<path style="fill:#FFFFFF;" d="M303.927,206.115c-4.779,0-8.671,4.099-8.671,9.182c0,5.061,3.892,9.182,8.671,9.182
	c4.813,0,8.693-4.121,8.693-9.182C312.62,210.214,308.739,206.115,303.927,206.115z"/>
<path style="fill:#343433;" d="M202.991,201.038c-12.012,0-21.736,10.286-21.736,22.968c0,12.67,9.725,22.945,21.736,22.945
	c11.999,0,21.728-10.275,21.728-22.945C224.719,211.324,214.99,201.038,202.991,201.038z"/>
<path style="fill:#FFFFFF;" d="M209.529,206.115c-4.79,0-8.682,4.099-8.682,9.182c0,5.061,3.892,9.182,8.682,9.182
	c4.815,0,8.706-4.121,8.706-9.182C218.235,210.214,214.344,206.115,209.529,206.115z"/>
<path style="fill:#A46434;" d="M271.719,127.884c-7.672-5.913-14.014-4.248-17.111-2.715c-5.309,2.605-8.868,8.462-8.868,14.561
	v3.528c-0.187-0.182-0.373-0.363-0.572-0.544c-5.307-5.182-1.658-12.309,6.441-26.66c2.219-3.94,0.625-13.006-0.166-16.709
	c-0.418-1.934-2.32-3.154-4.241-2.748c-1.924,0.407-3.154,2.303-2.747,4.231c1.033,4.868,1.473,10.483,0.935,11.72
	c-8.198,14.544-14.683,26.034-5.199,35.281c1.791,1.747,3.647,3.204,5.55,4.374v6.396c0,1.978,1.604,3.571,3.57,3.571
	c1.968,0,3.572-1.594,3.572-3.571v-3.408c4.527,1.056,9.33,0.67,14.34-1.17c5.232-1.917,9.023-6.642,9.901-12.313
	C277.948,136.279,275.939,131.114,271.719,127.884z M270.058,140.625c-0.473,3.104-2.504,5.671-5.286,6.698
	c-4.351,1.583-8.219,1.781-11.89,0.484v-8.077c0-3.33,2.055-6.769,4.88-8.16c2.813-1.378,6.132-0.708,9.615,1.968
	C270.42,135.883,270.267,139.279,270.058,140.625z"/>
<path style="fill:#49A0AE;" d="M251.661,258.72c-14.46,0-26.176,11.714-26.176,26.166c0,14.462,11.716,26.176,26.176,26.176
	c14.451,0,26.167-11.714,26.167-26.176C277.828,270.434,266.112,258.72,251.661,258.72z"/>
<path style="fill:#3D929A;" d="M251.661,270.611c-7.889,0-14.273,6.395-14.273,14.274c0,7.885,6.385,14.275,14.273,14.275
	c7.881,0,14.277-6.39,14.277-14.275C265.939,277.006,259.542,270.611,251.661,270.611z"/>
<g>
	<path style="fill:#357180;" d="M251.661,276.16c-4.813,0-8.723,3.907-8.723,8.726c0,4.813,3.91,8.736,8.723,8.736
		s8.728-3.923,8.728-8.736C260.389,280.067,256.475,276.16,251.661,276.16z"/>
	<path style="fill:#357180;" d="M263.091,293.622c-1.518-3.472-3.087-7.06-4.428-10.742c-0.45-1.23-1.825-1.873-3.057-1.423
		c-1.23,0.451-1.868,1.813-1.428,3.055c1.396,3.813,3.001,7.484,4.56,11.022c3.551,8.122,6.902,15.786,4.595,19.319
		c-1.451,2.22-5.473,3.341-11.968,3.341c-6.285,0-10.153-1.006-11.495-3c-1.932-2.879,0.705-9.335,3.494-16.176
		c1.814-4.434,3.857-9.451,5.244-14.714c0.34-1.275-0.418-2.572-1.693-2.907c-1.253-0.335-2.571,0.418-2.912,1.692
		c-1.298,4.962-3.286,9.83-5.044,14.132c-3.56,8.748-6.384,15.649-3.034,20.632c2.342,3.478,7.242,5.099,15.44,5.099
		c8.429,0,13.494-1.748,15.944-5.495C271.037,311.776,267.357,303.363,263.091,293.622z"/>
</g>
<g>
	<path style="fill:#E9C29C;" d="M355.951,208.742c-10.229,0-18.521,8.791-18.521,19.632s8.293,19.632,18.521,19.632
		c10.223,0,18.516-8.792,18.516-19.632S366.174,208.742,355.951,208.742z"/>
	<path style="fill:#E9C29C;" d="M144.979,208.742c-10.23,0-18.512,8.791-18.512,19.632s8.281,19.632,18.512,19.632
		c10.221,0,18.514-8.792,18.514-19.632S155.199,208.742,144.979,208.742z"/>
</g>
<g>
</g>
<g>
</g>
<g>
</g>
<g>
</g>
<g>
</g>
<g>
</g>
<g>
</g>
<g>
</g>
<g>
</g>
<g>
</g>
<g>
</g>
<g>
</g>
<g>
</g>
<g>
</g>
<g>
</g>
</svg>
