<?xml version="1.0" encoding="utf-8"?>
<!-- Generator: Adobe Illustrator 16.0.0, SVG Export Plug-In . SVG Version: 6.00 Build 0)  -->
<!DOCTYPE svg PUBLIC "-//W3C//DTD SVG 1.1//EN" "http://www.w3.org/Graphics/SVG/1.1/DTD/svg11.dtd">
<svg version="1.1" id="Capa_1" xmlns="http://www.w3.org/2000/svg" xmlns:xlink="http://www.w3.org/1999/xlink" x="0px" y="0px" viewBox="29 29 92 92" enable-background="new 29 29 92 92" xml:space="preserve">
<g>
	<g>
		<g>
			<circle id="SVGID_1_" fill="#FFFFFF" cx="75" cy="75" r="45.912"/>
		</g>
		<g>
			<g>
				<defs>
					<circle id="SVGID_2_" cx="75" cy="75" r="45.912"/>
				</defs>
				<clipPath id="SVGID_3_">
					<use xlink:href="#SVGID_2_"  overflow="visible"/>
				</clipPath>
				<g clip-path="url(#SVGID_3_)">
					<path fill="#B58DA9" d="M93.145,112.539c-1.892-11.438-9.486-19.992-18.578-19.992c-9.09,0-16.685,8.555-18.577,19.992h0
						v28.977h37.155V112.539L93.145,112.539z"/>
					<path fill="#E0CEBD" d="M58.751,83.881c0.314,1.508-0.304,2.91-1.379,3.134c-1.076,0.226-2.203-0.814-2.517-2.321
						c-0.314-1.506,0.304-2.908,1.38-3.133C57.311,81.335,58.438,82.376,58.751,83.881z"/>
					<path fill="#E0CEBD" d="M94.049,84.467c-0.319,1.566-1.484,2.651-2.604,2.424c-1.119-0.227-1.769-1.682-1.45-3.248
						s1.484-2.652,2.603-2.426C93.718,81.445,94.365,82.899,94.049,84.467z"/>
					<g>
						<path fill="#FFFFFF" d="M65.654,95.968c-0.366,1.811,1.384,3.628,3.909,4.06c2.139,0.363,4.142-0.385,4.929-1.722
							c-3.248-0.046-6.267-0.954-8.796-2.489C65.682,95.866,65.665,95.916,65.654,95.968z"/>
					</g>
					<g>
						<path fill="#FFFFFF" d="M83.088,95.973c0.362,1.855-1.373,3.72-3.876,4.162c-2.12,0.373-4.107-0.395-4.888-1.766
							c3.219-0.046,6.213-0.979,8.722-2.553C83.059,95.868,83.077,95.918,83.088,95.973z"/>
					</g>
					<path fill="#E8D9CA" d="M91.109,80.896c0,9.663-7.495,17.497-16.742,17.497c-9.246,0-16.743-7.834-16.743-17.497
						c0-9.665,7.497-17.499,16.743-17.499C83.614,63.397,91.109,71.231,91.109,80.896z"/>
					<path fill="#E0CEBD" d="M65.068,80.896c0-8.327,5.566-15.29,13.021-17.059c-1.198-0.285-2.442-0.439-3.722-0.439
						c-9.246,0-16.743,7.834-16.743,17.499c0,9.663,7.497,17.497,16.743,17.497c1.279,0,2.523-0.154,3.722-0.439
						C70.635,96.185,65.068,89.221,65.068,80.896z"/>
					<path fill="#623F33" d="M68.407,80.236L68.407,80.236c-0.686,0-1.247-0.562-1.247-1.248V77.74c0-0.687,0.561-1.248,1.247-1.248
						l0,0c0.687,0,1.248,0.562,1.248,1.248v1.248C69.655,79.675,69.094,80.236,68.407,80.236z"/>
					<path fill="#623F33" d="M80.047,80.236L80.047,80.236c-0.688,0-1.248-0.562-1.248-1.248V77.74c0-0.687,0.561-1.248,1.248-1.248
						l0,0c0.687,0,1.248,0.562,1.248,1.248v1.248C81.295,79.675,80.734,80.236,80.047,80.236z"/>
					<path fill="#A46D4D" d="M73.119,64.437c-2.192,0.352-3.73,1.923-3.73,2.353c0.575-0.434,2.844-0.609,4.436-0.68
						c0.907-0.041,1.623-0.787,1.623-1.695v-0.291c0-0.401-0.326-0.727-0.727-0.727h-0.728
						C73.993,63.91,73.626,64.355,73.119,64.437z"/>
					<path fill="#CE95BC" d="M71.257,93.32l6.403-6.404l-0.275-0.275c-1.768-1.768-4.634-1.768-6.404,0
						c-1.769,1.77-1.769,4.637,0,6.404L71.257,93.32z"/>
					<circle fill="#B25F99" cx="74.566" cy="90.216" r="4.528"/>
					<path fill="none" stroke="#CE95BC" stroke-width="6.1642" stroke-miterlimit="10" d="M71.94,89.4
						c0,1.736,1.135,3.143,2.535,3.143c1.4,0,2.535-1.406,2.535-3.143"/>
					<path fill="#D6BFAB" d="M74.375,83.477c0.851,0,1.364,0.761,1.364,0.393c0-0.369-0.246-1.068-1.364-1.068
						c-1.116,0-1.363,0.699-1.363,1.068C73.012,84.237,73.524,83.477,74.375,83.477z"/>
					<path fill="#FFFFFF" d="M57.538,86.409c0,0.203-0.165,0.368-0.368,0.368s-0.367-0.166-0.367-0.368s0.164-0.366,0.367-0.366
						S57.538,86.207,57.538,86.409z"/>
					<path fill="#FFFFFF" d="M92.146,86.409c0,0.203-0.165,0.368-0.367,0.368c-0.203,0-0.367-0.166-0.367-0.368
						s0.164-0.366,0.367-0.366C91.981,86.043,92.146,86.207,92.146,86.409z"/>
					<polygon fill="#BC699F" points="83.104,66.749 80.047,66.404 76.99,66.06 78.817,63.584 80.645,61.109 81.874,63.929 					"/>
					<polygon fill="#BC699F" points="83.166,66.83 84.396,69.649 85.627,72.47 87.455,69.994 89.281,67.519 86.225,67.174 					"/>
					<path fill="#CEAAC4" d="M84.548,67.849c-0.47,0.636-1.366,0.771-2.003,0.302l-0.615-0.455c-0.636-0.47-0.771-1.366-0.303-2.003
						l0,0c0.471-0.635,1.367-0.771,2.003-0.301l0.615,0.455C84.882,66.316,85.018,67.213,84.548,67.849L84.548,67.849z"/>
				</g>
			</g>
		</g>
	</g>
</g>
</svg>
