<?xml version="1.0" encoding="utf-8"?>
<!-- Generator: Adobe Illustrator 16.0.0, SVG Export Plug-In . SVG Version: 6.00 Build 0)  -->
<!DOCTYPE svg PUBLIC "-//W3C//DTD SVG 1.1//EN" "http://www.w3.org/Graphics/SVG/1.1/DTD/svg11.dtd">
<svg version="1.1" id="Capa_1" xmlns="http://www.w3.org/2000/svg" xmlns:xlink="http://www.w3.org/1999/xlink" x="0px" y="0px" viewBox="29.166 29.166 91.668 91.668" enable-background="new 29.166 29.166 91.668 91.668"
	 xml:space="preserve">
<g>
	<g>
		<g>
			<circle id="SVGID_1_" fill="#FFFFFF" cx="75" cy="75" r="45.912"/>
		</g>
		<g>
			<g>
				<defs>
					<circle id="SVGID_2_" cx="75" cy="75" r="45.912"/>
				</defs>
				<clipPath id="SVGID_3_">
					<use xlink:href="#SVGID_2_"  overflow="visible"/>
				</clipPath>
				<g clip-path="url(#SVGID_3_)">
					<path fill="#45697F" d="M95.142,114.321C93.77,102.344,85.02,93.105,74.419,93.105c-10.602,0-19.351,9.238-20.723,21.216
						h-0.065v30.363h41.575v-30.363H95.142z"/>
					<path fill="#E0CEBD" d="M94.519,85.741c-0.345,1.702-1.612,2.882-2.827,2.635c-1.217-0.247-1.922-1.827-1.576-3.53
						c0.347-1.702,1.613-2.883,2.828-2.635C94.16,82.458,94.865,84.039,94.519,85.741z"/>
					<g>
						<path fill="#FFFFFF" d="M64.844,95.973c-0.397,2.08,1.5,4.168,4.235,4.663c2.317,0.419,4.488-0.441,5.342-1.978
							c-3.52-0.052-6.791-1.095-9.532-2.859C64.875,95.856,64.854,95.913,64.844,95.973z"/>
					</g>
					<g>
						<path fill="#FFFFFF" d="M84.002,95.973c0.396,2.08-1.5,4.168-4.236,4.663c-2.316,0.419-4.488-0.441-5.342-1.978
							c3.52-0.052,6.791-1.095,9.532-2.859C83.971,95.856,83.99,95.913,84.002,95.973z"/>
					</g>
					<path fill="#E8D9CA" d="M91.753,81.377c0,9.574-7.761,17.334-17.334,17.334s-17.334-7.76-17.334-17.334
						c0-9.573,7.762-17.334,17.334-17.334C83.992,64.043,91.753,71.804,91.753,81.377z"/>
					<path fill="#E0CEBD" d="M58.72,84.835c0.354,1.7-0.344,3.284-1.559,3.538c-1.214,0.253-2.486-0.92-2.84-2.621
						c-0.355-1.701,0.342-3.285,1.557-3.538S58.366,83.135,58.72,84.835z"/>
					<path fill="#E0CEBD" d="M64.791,81.377c0-8.248,5.764-15.146,13.481-16.899c-1.239-0.281-2.527-0.435-3.853-0.435
						c-9.573,0-17.334,7.761-17.334,17.334c0,9.574,7.762,17.334,17.334,17.334c1.325,0,2.613-0.153,3.853-0.435
						C70.555,96.523,64.791,89.626,64.791,81.377z"/>
					<path fill="#623F33" d="M67.678,81.299L67.678,81.299c-0.743,0-1.351-0.607-1.351-1.351v-1.352
						c0-0.743,0.608-1.352,1.351-1.352l0,0c0.744,0,1.352,0.608,1.352,1.352v1.352C69.03,80.691,68.422,81.299,67.678,81.299z"/>
					<path fill="#623F33" d="M81.231,81.299L81.231,81.299c-0.743,0-1.351-0.607-1.351-1.351v-1.352
						c0-0.743,0.607-1.352,1.351-1.352l0,0c0.744,0,1.352,0.608,1.352,1.352v1.352C82.582,80.691,81.976,81.299,81.231,81.299z"/>
					<path fill="#A46D4D" d="M75.738,64.554c1.707-0.274,2.904-1.497,2.904-1.832c-0.447,0.338-2.215,0.475-3.454,0.53
						c-0.707,0.031-1.262,0.612-1.262,1.319v0.227c0,0.312,0.253,0.566,0.566,0.566h0.565
						C75.058,64.964,75.345,64.618,75.738,64.554z"/>
					<g>
						<path fill="#82C6D1" d="M71.429,95.131l6.142-6.142l-0.265-0.264c-1.696-1.696-4.445-1.696-6.142,0
							c-1.696,1.696-1.696,4.445,0,6.142L71.429,95.131z"/>
						<path fill="#3B97AD" d="M78.945,92.154c0,2.398-1.944,4.342-4.343,4.342c-2.398,0-4.343-1.943-4.343-4.342
							c0-2.399,1.945-4.344,4.343-4.344C77,87.811,78.945,89.755,78.945,92.154z"/>
						<path fill="none" stroke="#82C6D1" stroke-width="6.3254" stroke-miterlimit="10" d="M72.083,91.371
							c0,1.666,1.088,3.015,2.431,3.015c1.343,0,2.431-1.349,2.431-3.015"/>
					</g>
					<path fill="#D6BFAB" d="M74.423,85.608c0.816,0,1.309,0.729,1.309,0.378c0-0.354-0.237-1.025-1.309-1.025
						c-1.071,0-1.307,0.672-1.307,1.025C73.116,86.338,73.608,85.608,74.423,85.608z"/>
				</g>
			</g>
		</g>
	</g>
</g>
</svg>
