<?xml version="1.0" encoding="utf-8"?>
<!-- Generator: Adobe Illustrator 16.0.0, SVG Export Plug-In . SVG Version: 6.00 Build 0)  -->
<!DOCTYPE svg PUBLIC "-//W3C//DTD SVG 1.1//EN" "http://www.w3.org/Graphics/SVG/1.1/DTD/svg11.dtd">
<svg version="1.1" id="Capa_1" xmlns="http://www.w3.org/2000/svg" xmlns:xlink="http://www.w3.org/1999/xlink" x="0px" y="0px" viewBox="29.167 29.167 91.667 91.667" enable-background="new 29.167 29.167 91.667 91.667"
	 xml:space="preserve">
<g>
	<g>
		<g>
			<circle id="SVGID_1_" fill="#FFFFFF" cx="75" cy="75" r="45.912"/>
		</g>
		<g>
			<g>
				<defs>
					<circle id="SVGID_2_" cx="75" cy="75" r="45.912"/>
				</defs>
				<clipPath id="SVGID_3_">
					<use xlink:href="#SVGID_2_"  overflow="visible"/>
				</clipPath>
				<g clip-path="url(#SVGID_3_)">
					<path fill="#E8D9CA" d="M58.485,62.877c-3.614,5.106-1.611,14.365-1.611,14.365c-0.123,0.408-0.475,1.176-0.475,1.623
						c0,0.635-0.053,1.26,0.188,1.807c0.208,0.509,0.156,0.51,0.208,1.063c0.167,1.815,0.901,3.783,2.732,3.783v1.104
						c0,2.677,1.609,5.091,4.08,6.12l4.76,1.983v3.564c-0.125,1.05-0.609,1.795-1.511,2.096l-1.588,0.53
						c-0.572-0.487-1.383-0.645-2.124-0.397l-5.393,1.798c-1.614,0.539-2.777,1.956-2.987,3.645l-0.971,7.766l-0.056-0.006
						c-0.357-0.041-0.679,0.217-0.718,0.574l-0.101,0.902c-0.039,0.357,0.218,0.678,0.576,0.719l1.617,0.18v2.572
						c0,1.22,0.989,2.209,2.209,2.209h5.523h24.31h5.524c1.221,0,2.209-0.989,2.209-2.209v-2.572l1.617-0.18
						c0.357-0.039,0.614-0.361,0.574-0.719l-0.099-0.902c-0.04-0.357-0.362-0.615-0.72-0.574l-0.057,0.005l-0.969-7.765
						c-0.213-1.688-1.375-3.105-2.988-3.645l-5.393-1.798c-0.74-0.247-1.554-0.09-2.125,0.397l-1.589-0.53
						c-0.902-0.301-1.511-1.145-1.511-2.097l0.053-3.542l4.709-2.005c2.471-1.028,4.078-3.443,4.078-6.119v-1.104
						c1.832,0,2.58-1.339,2.58-3.169c0-0.554,0.346-1.076,0.36-1.678c0.241-0.547,0.375-1.149,0.375-1.783
						c0-0.448-1.284-2.515-1.409-2.922c0.812-0.801,0.238-0.996,0.238-2.226c0-0.448,0.479-0.627,0.357-1.034
						c0.81-0.802,0.236-1.428,0.236-2.658c0-2.125-0.396-2.877-0.713-4.321c0.107-0.385-6.002-5.344-6.708-4.867
						c-0.603-1.724-2.227-2.967-4.156-2.967c-1.089,0-2.075,0.41-2.845,1.064c-0.771-1.293-2.17-2.168-3.785-2.168
						s-3.014,0.875-3.785,2.168c-0.771-0.654-1.755-1.064-2.845-1.064c-1.929,0-3.552,1.244-4.156,2.967
						C60.27,60.032,58.485,62.877,58.485,62.877z"/>
					<path fill="#D6BFAB" d="M76.686,111.605H54.053l-0.263,2.096l-0.055-0.006c-0.357-0.04-0.678,0.218-0.718,0.574l-0.1,0.903
						c-0.039,0.357,0.217,0.679,0.576,0.719l1.616,0.18v2.571c0,1.221,0.99,2.21,2.21,2.21h5.523h13.845L76.686,111.605
						L76.686,111.605z"/>
					<path fill="#375063" d="M87.152,120.92v-5.525h9.254l-1.174-9.391c-0.211-1.689-1.373-3.106-2.988-3.645l-5.393-1.799
						c-0.939-0.313-1.996,0.022-2.527,0.857c-1.957,3.087-5.4,5.137-9.327,5.137s-7.37-2.05-9.328-5.137
						c-0.531-0.835-1.586-1.17-2.526-0.857l-5.394,1.799c-1.613,0.538-2.777,1.955-2.986,3.645l-1.052,8.408l9.132,0.982v5.523
						L87.152,120.92L87.152,120.92L87.152,120.92z"/>
					<path fill="#D6BFAB" d="M79.311,95.739c-1.341,0.561-2.779,0.851-4.231,0.851c-1.455,0-2.893-0.289-4.233-0.851l-2.427-0.991
						l-0.053,3.542c-0.123,1.057-0.436,1.522-1.102,1.913c9.225,1.621,14.411-5.451,14.413-5.455L79.311,95.739z"/>
					<path fill="#A46D4D" d="M75.451,91.379c-1.55,0-3-0.268-3.977-0.735c-0.398-0.19-0.502-0.571-0.231-0.851
						c0.271-0.279,0.813-0.353,1.212-0.162c0.685,0.328,1.805,0.522,2.996,0.522c1.191,0,2.311-0.194,2.996-0.522
						c0.399-0.189,0.94-0.118,1.211,0.162c0.271,0.279,0.168,0.66-0.23,0.851C78.45,91.111,77,91.379,75.451,91.379z"/>
					<path fill="#45697F" d="M62.842,116.229v-2.5c0-1.063-0.382-2.09-1.079-2.895l-6.08-7.02c-0.491,0.622-0.82,1.372-0.921,2.189
						l-1.154,9.232C55.365,115.343,60.04,115.891,62.842,116.229z"/>
					<path fill="#45697F" d="M62.842,114.774l-9.106-1.013c-0.358-0.04-0.679,0.219-0.718,0.575l-0.101,0.902
						c-0.039,0.358,0.218,0.679,0.576,0.718l9.351,1.04L62.842,114.774L62.842,114.774L62.842,114.774z"/>
					<path fill="#45697F" d="M87.152,116.229v-2.5c0-1.063,0.382-2.09,1.079-2.895l6.081-7.02c0.49,0.622,0.818,1.372,0.92,2.189
						l1.154,9.232C94.629,115.343,89.955,115.891,87.152,116.229z"/>
					<path fill="#45697F" d="M87.152,114.774l9.107-1.013c0.357-0.04,0.678,0.219,0.719,0.575l0.1,0.902
						c0.04,0.358-0.218,0.679-0.575,0.718l-9.351,1.04V114.774L87.152,114.774z"/>
					<path fill="#D6BFAB" d="M81.078,72.164c2.111,0,3.902-1.319,4.621-3.177l-3.787-1.148l-7.005,0.534l-4.837,0.296l-7.095-2.553
						l-2.285,1.217l-0.979,4.423c0,0-1.692,4.601-2.79,5.848c-1.098,1.246-0.184,4.294-0.184,4.294
						c0.472,2.14,0.964,3.524,2.794,3.524v1.104c0,2.678,1.605,5.186,4.076,6.215c0,0,7.997,3.44,8.246,3.359
						c-3.155-2.308-5.291-4.425-6.521-5.744c-0.896-0.96-1.381-2.227-1.381-3.54V74.343V68.84"/>
					<path fill="#623F33" d="M67.263,82.258L67.263,82.258c-0.608,0-1.105-0.497-1.105-1.104v-1.104
						c0-0.608,0.497-1.105,1.105-1.105l0,0c0.607,0,1.104,0.497,1.104,1.105v1.104C68.367,81.762,67.87,82.258,67.263,82.258z"/>
					<path fill="#623F33" d="M82.732,82.258L82.732,82.258c-0.608,0-1.105-0.497-1.105-1.104v-1.104
						c0-0.608,0.497-1.105,1.105-1.105l0,0c0.605,0,1.104,0.497,1.104,1.105v1.104C83.837,81.762,83.34,82.258,82.732,82.258z"/>
					<path fill="#D6BFAB" d="M75.451,84.796c-1.28,0-2.051-0.955-2.051-0.493c0,0.463,0.37,1.342,2.051,1.342
						c1.679,0,2.049-0.879,2.049-1.342C77.502,83.841,76.73,84.796,75.451,84.796z"/>
					<path fill="#D6BFAB" d="M75.114,70.951c-0.493-1.24-0.623-3.091-0.623-3.091c2.552,4.308,6.414,4.495,6.414,4.495
						c-0.855-1.382-1.033-2.574-1.033-2.574c3.032,2.165,4.887,2.554,5.902,2.512c0.274,1.334,0.508,2.658,0.715,3.966
						c-1.092-0.193-2.699-0.819-4.97-2.438c0,0,0.179,1.191,1.034,2.573c0,0-3.861-0.188-6.413-4.495c0,0,0.13,1.852,0.624,3.092
						c0,0-10.359-1.808-17.804-11.2L75.114,70.951z"/>
					<path fill="#754A3E" d="M92.894,65.589c-0.872-2.901-3.812-4.572-6.088-5.46c-4.39-4.749-11.464-5.807-17.126-5.703
						c-9.042,0.167-10.964,8.49-10.964,8.49c0.003,0.003,0.005,0.005,0.009,0.009c-0.723,0.746-1.312,1.622-1.625,2.664
						c-1.839,6.122-0.18,12.016-0.18,12.016l1.286,1.495c0.226-4.784,2.154-7.474,4.244-12.312
						c7.444,6.234,17.805,7.434,17.805,7.434c-0.494-0.824-0.623-2.052-0.623-2.052c2.551,2.86,6.412,2.984,6.412,2.984
						c-0.854-0.917-1.033-1.709-1.033-1.709c3.033,1.437,4.888,1.695,5.904,1.667c0.786,2.545,1.469,1.764,1.574,3.987l0.602-0.378
						C93.089,78.722,94.734,71.709,92.894,65.589z"/>
				</g>
			</g>
		</g>
	</g>
</g>
</svg>
