<?xml version="1.0" encoding="utf-8"?>
<!-- Generator: Adobe Illustrator 18.1.1, SVG Export Plug-In . SVG Version: 6.00 Build 0)  -->
<svg version="1.1" id="Capa_1" xmlns="http://www.w3.org/2000/svg" xmlns:xlink="http://www.w3.org/1999/xlink" x="0px" y="0px"
	 viewBox="0 0 149.8 149.8" enable-background="new 0 0 149.8 149.8" xml:space="preserve">
<g>
	<g>
		<g>
			<circle id="SVGID_1_" fill="#FFFFFF" cx="74.9" cy="74.9" r="64.9"/>
		</g>
		<g>
			<g>
				<defs>
					<circle id="SVGID_2_" cx="74.9" cy="74.9" r="64.9"/>
				</defs>
				<clipPath id="SVGID_3_">
					<use xlink:href="#SVGID_2_"  overflow="visible"/>
				</clipPath>
				<g clip-path="url(#SVGID_3_)">
					<polygon fill="#8FC4D7" points="95,98 52.1,98 56.5,90.9 90.8,90.9 					"/>
					<polygon fill="#A6DAE9" points="93.3,93.4 53.8,93.4 57.8,90.9 89.5,90.9 					"/>
					<path fill="#0E303F" d="M74.2,143.1c17.1,0,33.2-2.8,47.5-7.7l-3.4-30.2c-0.4-3.7-6.3-6.6-13.9-7.1c-20-3.6-40.3-3.6-60.5,0
						c-7.4,0.5-13.4,3.4-13.9,7.1l-3.4,30.2C40.9,140.3,57.1,143.1,74.2,143.1z"/>
					<path fill="#2C5871" d="M105.1,104.9c-20.5-3.6-41.4-3.6-61.9,0c-6.6,0.4-12.2,2.7-13.8,5.7l-2.8,24.8
						c14.3,4.9,30.4,7.7,47.5,7.7s33.2-2.8,47.5-7.7l-2.8-24.8C117.3,107.6,111.7,105.3,105.1,104.9z"/>
					<path fill="#0E303F" d="M89.6,107.8c0,6.3-6.9,11.6-15.4,11.6c-8.5,0-15.4-5.1-15.4-11.6c0-6.3,6.9-11.6,15.4-11.6
						S89.6,101.5,89.6,107.8z"/>
					<path fill="#FFD6BB" d="M86.8,103.5c0,6.7-5.4,12.2-12.2,12.2l0,0c-6.7,0-12.2-5.4-12.2-12.2V91c0-6.7,5.4-12.2,12.2-12.2l0,0
						c6.7,0,12.2,5.4,12.2,12.2V103.5z"/>
					<path fill="#EDC9AE" d="M83,111.1c0.2,0.2,0.4,0.4,0.6,0.6c2-2.2,3.2-5,3.2-8.2V91c0-6.7-5.4-12.2-12.2-12.2
						c-6.6,0-12,5.2-12.2,11.9L83,111.1z"/>
					<path fill="#78796C" d="M74.2,63.2c8.9-0.2,17.5,1.2,23.9,3.7c3.3-20.8-9.8-34.7-23.9-33.8c-14.2-0.9-27.3,13-23.9,33.9
						C56.6,64.4,65.2,63,74.2,63.2z"/>
					<g>
						<g>
							<path fill="#FFD6BB" d="M56.6,72.6c1.2,4.2,0.9,7.1-0.3,7.6c-1.2,0.5-3.1-1.5-4.8-5.6c-1.7-4-1.8-8.1-0.1-8.8
								C53.1,65.1,55.5,68.4,56.6,72.6z"/>
						</g>
					</g>
					<path fill="#FCE1D0" d="M94.2,69.4c-3.3,19.2-11.4,28.2-20.1,28.2S57.3,88.6,54,69.4c-3.3-20,7.8-33.4,20.1-32.5
						C86.4,35.9,97.6,49.4,94.2,69.4z"/>
					<path fill="#FFD6BB" d="M74.7,36.9v60.7c8.5-0.4,16.3-9.4,19.5-28.2C97.5,49.7,86.7,36.5,74.7,36.9z"/>
					<g>
						<g>
							<path fill="#FFD6BB" d="M91.1,72.7c-1.1,4.9-0.8,8.2,0.4,8.8c1.2,0.5,3.1-1.9,4.7-6.6c1.6-4.7,1.7-9.5,0-10.2
								C94.5,63.9,92.2,67.8,91.1,72.7z"/>
						</g>
					</g>
					<path fill="#78796C" d="M94.1,50.3c0-0.9-0.4-2.7-1.2-4.7c-0.2-0.6-0.3-1.3-0.5-1.9c-0.4-1.4-1.4-2.5-2.8-3.5
						c-2-2.3-4.7-4.2-8.1-4.3c-2.5-0.1-5.2,0-8.1,0.4c-2.8-0.1-5.5,0-8.1,0.3c-3.3,0.4-5.8,2.5-7.7,5c-1.3,1.1-2.3,2.4-2.5,3.7
						c-0.1,0.6-0.2,1.3-0.3,1.9c-0.7,2.1-0.9,3.9-0.8,4.8c-0.7,4.5-1.3,8.8-0.9,10c0,0,2,0.7,2.3-3.7c0.2-2.1-0.1-4.4,0-6.5
						c1.9-1.8,4.9-4.4,8.5-4.5c2,1,3.7,1.1,5.4,2.1c1.5,0.9,7.4,0.6,8.9-0.4c1.6-1.1,3.3-1.4,5.2-2.6c3.6-0.2,6.9,2.1,8.9,3.7
						c0.3,2.1,0.2,4.5,0.6,6.5c0.8,4.4,2.6,3.5,2.6,3.5C96.2,58.9,95.3,54.9,94.1,50.3z"/>
					<path fill="#EFEFEF" d="M54.6,93.2c-3.8,0.4-7.3,1.2-11.1,1.9c-8.9,2.3-14.1,5.2-14.6,9L25,135.6c9.7,3,20,5.3,30.9,6.6
						L54.6,93.2z"/>
					<path fill="#A6DAE9" d="M67.6,149l-7.3-36L54,95.2l4.9-3.3c-4.4,0.3-0.2-0.6-4.6,0c-6.5,6.1-12.5,13-12.5,13
						s12.1,10.7,12.5,11.8l-8.5,5.3l3.3,22.2C55.6,146,67.3,149,67.6,149z"/>
					<path fill="#FFFFFF" d="M67.6,149l-6.9-36.7l-5.8-18l4.6-3.3c-4.2,0.3-0.2-0.6-4.4,0c-6.1,6.2-11.8,13.2-11.8,13.2
						s11.4,10.9,11.8,12l-8,5.4l3.1,22.7C56.3,146,67.3,149,67.6,149z"/>
					<path fill="#EFEFEF" d="M93.7,93.4c3.8,0.4,5.8,1,9.7,1.7c8.5,0.5,14.7,5.2,15.2,9l3.9,31.5c-9.7,3-20,5.3-30.9,6.6L93.7,93.4z
						"/>
					<path fill="#A6DAE9" d="M79.9,149l7.3-36l6.2-17.7l-4.9-3.3c4.4,0.3,0.2-0.6,4.6,0c6.5,6.1,12.5,13,12.5,13
						s-12.1,10.7-12.5,11.8l8.5,5.3l-3.3,22.2C91.9,146,80.1,149,79.9,149z"/>
					<path fill="#FFFFFF" d="M79.9,149l6.9-36.7l5.8-18l-4.6-3.3c4.2,0.3,0.2-0.6,4.4,0c6.1,6.2,11.8,13.2,11.8,13.2
						s-11.5,10.9-11.8,12l8,5.4l-3.1,22.7C91.3,146,80.1,149,79.9,149z"/>
				</g>
			</g>
		</g>
	</g>
</g>
</svg>
