<?xml version="1.0" encoding="utf-8"?>
<!-- Generator: Adobe Illustrator 18.1.1, SVG Export Plug-In . SVG Version: 6.00 Build 0)  -->
<svg version="1.1" id="Capa_1" xmlns="http://www.w3.org/2000/svg" xmlns:xlink="http://www.w3.org/1999/xlink" x="0px" y="0px"
	 viewBox="0 0 149 149" enable-background="new 0 0 149 149" xml:space="preserve">
<g>
	<g>
		<defs>
			<circle id="SVGID_1_" cx="74.5" cy="74.5" r="64.5"/>
		</defs>
		<use xlink:href="#SVGID_1_"  overflow="visible" fill="#FFFFFF"/>
		<clipPath id="SVGID_2_">
			<use xlink:href="#SVGID_1_"  overflow="visible"/>
		</clipPath>
		<g clip-path="url(#SVGID_2_)">
			<path fill="#54C4C9" d="M72.5,145c14,0,27.2-2.7,38.9-7.3l-2.8-28.9c-0.3-3.5-5.2-6.4-11.3-6.9c-16.4-3.5-33-3.5-49.4,0
				c-6.1,0.5-11,3.3-11.3,6.9l-2.8,28.9C45.3,142.4,58.5,145,72.5,145z"/>
			<path fill="#FFE8D9" d="M71.9,99c-6.9,0-13.9,0.6-20.8,1.9c0,0.3,0.1,0.6,0,0.9c-8.9,23.4,16.5,24,20.8,30V99z"/>
			<path fill="#FFE8D9" d="M71.6,99c6.9,0,13.9,0.6,20.8,1.9c0,0.3,0,0.6,0.1,0.9c8.9,23.4-16.5,24-20.8,30V99z"/>
			<path fill="#97998A" d="M45.5,75.9C49,95.8,49,91.5,64.6,94.4c10,1.8,18.5-12.6,18.5-28.1c0-15.5-10.6-32.4-20.2-29.1
				C45.9,43,42.7,60.6,45.5,75.9z"/>
			<path fill="#78796C" d="M83.1,66c0-9-3.9-19-8.9-24.8c-2.4-1.5-4.9-1.8-7.3-0.5C47,51.9,46.8,63.9,49.5,78.9
				c1.2,6.6,2,10.5,3.1,12.9c2.5,0.7,6.1,0.8,12,1.8C74.7,95.4,83.1,81.3,83.1,66z"/>
			<path fill="#97998A" d="M98.9,75.9c-3.6,19.9-3.6,15.6-19.2,18.5c-10,1.8-18.5-12.6-18.5-28.1c0-15.5,11.4-34.2,20.2-29.1
				C101.4,48.6,101.7,60.6,98.9,75.9z"/>
			<path fill="#78796C" d="M95.6,79.4c-3.2,16.1-3.2,12.7-17.5,15C69,95.9,61.3,84.2,61.3,71.6c0-12.6,10.4-27.7,18.5-23.6
				C97.9,57.2,98.1,67,95.6,79.4z"/>
			<path fill="#78796C" d="M77.7,43.6c-4.1-2.4-8.8,0.6-12.6,6c-2.3,5.1-3.8,11.1-3.8,16.7c0,15.2,8.2,29.3,18,27.5
				c7.3-1.3,11.1-1.1,13.4-2.6c0.6-2.3,1.2-5.4,2-9.7C97.4,66.6,97.1,54.8,77.7,43.6z"/>
			<path fill="#FFE8D9" d="M84.3,91.9c0-0.4,0-0.7,0-1.1c-7.8-3.2-15.7-3.2-23.5,0c0,0.4,0,0.7,0,1.1c0,12.3,5.3,22.3,11.8,22.3
				C79,114.1,84.3,104.2,84.3,91.9z"/>
			<path fill="#F7D4BC" d="M84.2,91.8c0-0.4,0-0.7,0-1.1c-2.5-1-5-1.6-7.4-2c-2.7,0.5-5.3,1.4-8,2.9c0,0.5,0,1,0,1.5
				c0.1,8.3,1.5,15.8,3.8,21.1c0,0,0.1,0,0.1,0C79.2,114.1,84.3,104.1,84.2,91.8z"/>
			<path fill="#F7D4BC" d="M72.5,35.5C58.7,34.6,45.9,48.4,49.7,69c3.8,19.8,12.9,29.1,22.8,29.1c9.9,0,19-9.2,22.8-29.1
				C99.1,48.5,86.4,34.6,72.5,35.5z"/>
			<g>
				<g>
					<g>
						<path fill="#F7D4BC" d="M54,75.5c0.8,4.8,0.3,7.9-0.9,8.3c-1.2,0.4-3-2-4.3-6.6c-1.3-4.6-1.1-9.2,0.6-9.7
							C51.1,66.9,53.2,70.7,54,75.5z"/>
					</g>
				</g>
				<g>
					<g>
						<path fill="#F7D4BC" d="M91,75.5c-0.8,4.8-0.3,7.9,0.9,8.3c1.2,0.4,3-2,4.3-6.6c1.3-4.6,1.1-9.2-0.6-9.7
							C93.9,66.9,91.8,70.7,91,75.5z"/>
					</g>
				</g>
			</g>
			<path fill="#FFE8D9" d="M91.7,72c-3.4,16.2-11.5,23.7-20.4,23.7c-8.8,0-17-7.5-20.3-23.7c-3.4-16.8,8-28,20.3-27.3
				C83.7,44,95.1,55.2,91.7,72z"/>
			<path fill="#78796C" d="M97.5,54.6C94.6,43,84.9,35.7,74.3,35.5c-0.8,2.6-1.3,5.6-1.3,8.7c0,11.3,18.9,10.3,22.7,23.3
				C95.8,67.5,98.7,64.6,97.5,54.6z"/>
			<path fill="#97998A" d="M72.5,44c-11.7-0.7-22.5,9.5-20.7,25c4.2,1.2,8.9,1.9,13.9,1.9c2,0,4-0.1,6-0.3l0.5-0.9l4.5-7.6l-2.4,8.1
				c0.5-0.1,1-0.2,1.4-0.3l1.2-2.1L83.1,57l4.2,8.4c0,0,4.1-2.2,5.7-4C91.2,50.3,82.2,43.5,72.5,44z"/>
			<path fill="#97998A" d="M47.5,69.4c0,0,0,0.1,0,0.1c2.3,0.4,4.7,0.7,7.2,0.7c17.4,0,31.5-11.2,31.5-24.9c0-2.5-0.5-4.8-1.3-7.1
				c-3.8-2-8.1-3.1-12.4-2.8C57.3,34.5,43.3,48.5,47.5,69.4z"/>
			<path fill="#78796C" d="M86.1,48.4c-0.8,3-1.8,5.9-2.9,8.6l4.5,8.4c0,0,4.3-2.2,6-4C92.7,55.9,89.9,51.4,86.1,48.4z"/>
			<path fill="#97998A" d="M88.2,51.7c3.7,2.9,6.8,8.3,8.2,14.9c0.8-1.5,2-5,1.1-12c-1.6-6.4-5.2-12.1-11.9-16.1
				c0.5,1.4,2.9,4.2,3.1,5.8C89,46.8,88.8,49.3,88.2,51.7z"/>
			<path fill="#78796C" d="M96.2,86.9c0.4-1.8,0.8-3.9,1.2-6.3c2.2-12.6,2.4-23-8.7-32.7c-0.3,0.4-0.6,0.9-0.9,1.4
				c10.9,9.6,11.4,17.4,9,32.2C96.4,84.1,95.8,87.4,96.2,86.9z"/>
			<g>
				<path fill="#EDEDED" d="M59.4,99.4c-3.6,0.3-7.3,0.6-10.9,1c-7.4,0.9-13.4,3.4-13.8,7l-3.4,29.3c8.8,2.9,18.3,5.1,28.2,6.3V99.4
					z"/>
				<path fill="#D0DDDD" d="M58.4,99.4c-2,0.2-2.4,0.1-4.9,0.3c-3.4,4.4-8.4,12.8-8.4,12.8s7.1,2.9,7.1,2.9c0-0.1-5.1,5.1-5.1,5.1
					l7.8,21.9c1.1,0.2,2.3,0.3,3.4,0.4V99.4z"/>
				<path fill="#FFFFFF" d="M60.4,99.4c-2,0.2-2.4,0.1-4.9,0.3c-3.4,4.4-8.4,12.8-8.4,12.8s7.1,2.9,7.1,2.9c0-0.1-5.1,5.1-5.1,5.1
					l7.8,21.9c1.1,0.2,2.3,0.3,3.4,0.4V99.4z"/>
			</g>
			<g>
				<path fill="#EDEDED" d="M84.9,99.4c3.6,0.3,7.3,0.6,10.9,1c7.4,0.9,13.4,3.4,13.8,7l3.4,29.3c-8.8,2.9-18.3,5.1-28.2,6.3V99.4z"
					/>
				<path fill="#D7DDDD" d="M86.9,99.4c2,0.2,2.4,0.1,4.9,0.3c3.4,4.4,8.4,12.8,8.4,12.8s-7.1,2.9-7.1,2.9c0-0.1,5.1,5.1,5.1,5.1
					l-7.8,21.9c-1.1,0.2-2.3,0.3-3.4,0.4V99.4z"/>
				<path fill="#FFFFFF" d="M84.9,99.4c2,0.2,2.4,0.1,4.9,0.3c3.4,4.4,8.4,12.8,8.4,12.8s-7.1,2.9-7.1,2.9c0-0.1,5.1,5.1,5.1,5.1
					l-7.8,21.9c-1.1,0.2-2.3,0.3-3.4,0.4V99.4z"/>
			</g>
		</g>
	</g>
</g>
</svg>
