<?xml version="1.0" encoding="utf-8"?>
<!-- Generator: Adobe Illustrator 16.0.0, SVG Export Plug-In . SVG Version: 6.00 Build 0)  -->
<!DOCTYPE svg PUBLIC "-//W3C//DTD SVG 1.1//EN" "http://www.w3.org/Graphics/SVG/1.1/DTD/svg11.dtd">
<svg version="1.1" id="Capa_1" xmlns="http://www.w3.org/2000/svg" xmlns:xlink="http://www.w3.org/1999/xlink" x="0px" y="0px"
	 viewBox="0 0 595.279 841.89" enable-background="new 0 0 595.279 841.89"
	 xml:space="preserve">
<g>
	<g>
		<g>
			<circle id="SVGID_1_" fill="#FFFFFF" cx="297.64" cy="420.946" r="257.689"/>
		</g>
		<g>
			<defs>
				<circle id="SVGID_2_" cx="297.64" cy="420.946" r="257.689"/>
			</defs>
			<clipPath id="SVGID_3_">
				<use xlink:href="#SVGID_2_"  overflow="visible"/>
			</clipPath>
			<g clip-path="url(#SVGID_3_)">
				<path fill="#E8D9CA" d="M412.233,375.779c0,68.454-52.526,123.95-117.317,123.95c-64.786,0-117.313-55.496-117.313-123.95
					c0-68.46,52.528-123.954,117.313-123.954C359.706,251.825,412.233,307.318,412.233,375.779z"/>
				<path fill="#E8D9CA" d="M502.398,660.95c0-75.914-91.414-137.457-204.177-137.457c-111.362,0-201.834,60.027-204.078,134.634
					h-0.657c0,75.917,91.413,137.456,204.18,137.456c111.364,0,201.836-60.023,204.072-134.633H502.398z"/>
				<path fill="#D6BFAB" d="M284.729,415.416c0-8.997,1.091-16.166,3.274-21.5c2.183-5.334,6.178-10.588,11.99-15.762
					s9.68-9.385,11.605-12.634c1.927-3.246,2.891-6.672,2.891-10.276c0-10.868-5.009-16.304-15.026-16.304
					c-4.752,0-8.556,1.463-11.412,4.393c-2.857,2.93-4.352,6.967-4.479,12.115H255.64c0.128-12.275,4.094-21.884,11.895-28.825
					c7.802-6.941,18.445-10.413,31.929-10.413c13.614,0,24.177,3.294,31.688,9.884c7.514,6.588,11.271,15.891,11.271,27.91
					c0,5.462-1.222,10.621-3.662,15.474c-2.439,4.851-6.709,10.235-12.81,16.149l-7.803,7.422
					c-4.88,4.695-7.672,10.187-8.378,16.486l-0.386,5.881H284.729L284.729,415.416z M281.935,444.936
					c0-4.287,1.46-7.824,4.382-10.608c2.921-2.784,6.661-4.175,11.22-4.175s8.299,1.391,11.221,4.175s4.384,6.321,4.384,10.608
					c0,4.225-1.431,7.713-4.286,10.463c-2.857,2.754-6.631,4.129-11.318,4.129s-8.459-1.375-11.316-4.129
					C283.363,452.649,281.935,449.161,281.935,444.936z"/>
			</g>
		</g>
	</g>
</g>
</svg>
