<?xml version="1.0" encoding="utf-8"?>
<!-- Generator: Adobe Illustrator 16.0.0, SVG Export Plug-In . SVG Version: 6.00 Build 0)  -->
<!DOCTYPE svg PUBLIC "-//W3C//DTD SVG 1.1//EN" "http://www.w3.org/Graphics/SVG/1.1/DTD/svg11.dtd">
<svg version="1.1" id="Capa_1" xmlns="http://www.w3.org/2000/svg" xmlns:xlink="http://www.w3.org/1999/xlink" x="0px" y="0px" viewBox="29 29 92 92" enable-background="new 29 29 92 92" xml:space="preserve">
<g>
	<g>
		<g>
			<circle id="SVGID_1_" fill="#FFFFFF" cx="75" cy="75" r="45.912"/>
		</g>
		<g>
			<g>
				<defs>
					<circle id="SVGID_2_" cx="75" cy="75" r="45.912"/>
				</defs>
				<clipPath id="SVGID_3_">
					<use xlink:href="#SVGID_2_"  overflow="visible"/>
				</clipPath>
				<g clip-path="url(#SVGID_3_)">
					<path fill="#623F33" d="M92.888,90.233c0,0,2.124-9.444,2.352-14.468c0-13.177-9.202-20.634-20.556-20.634
						c-11.351,0-20.554,7.457-20.554,20.634c0.228,5.023,2.352,14.468,2.352,14.468c0.181,1.705,0.042,3.23-1.017,3.513
						l-1.249,0.333l18.292,2.559c0.726,0.134,1.962-0.271,2.085-0.87l0.044-0.213l0.046,0.004l0.048-0.004l0.044,0.213
						c0.123,0.6,1.36,1.004,2.085,0.87l18.293-2.559l-1.248-0.333C92.846,93.463,92.707,91.938,92.888,90.233z"/>
					<path fill="#E8D9CA" d="M89.579,102.584l-5.893-1.507l-2.086-0.835h0.005l-0.148-0.061c-0.887-0.304-1.362-1.059-1.486-2.121
						v-3.611l4.684-2.008c2.313-1.383,3.282-3.251,3.819-6.189l0.194-1.129c1.801,0,2.521-1.994,2.686-3.832
						c0,0,0.727-3.879-0.311-3.414c-0.541-0.039,0.812-5.793-0.119-8.502c-1.318-3.843-8.295-9.975-15.792-9.975
						c-0.152,0-0.298,0.007-0.446,0.009c-0.148-0.002-0.294-0.009-0.446-0.009c-7.499,0-13.193,6.054-14.773,9.797
						c-1.58,3.744-1.139,8.679-1.139,8.679c-1.037-0.465-0.311,3.414-0.311,3.414c0.166,1.838,0.887,3.832,2.687,3.832l0.195,1.129
						c0.538,2.938,1.505,4.807,3.818,6.189l4.683,2.008v3.611c-0.104,0.895-0.461,1.566-1.1,1.94
						c-0.056,0.024-0.108,0.051-0.168,0.071l-2.515,1.005l-5.905,1.507c-1.425,0.488-3.4,0.709-3.4,2.606v10.766
						c0,0,0,3.149,0,4.612c0,0.291,0.199,0.258,0.199,0.258h2.218h5.446h8.976h1.767l0,0h1.252h8.957h5.436h2.214
						c0,0,0.199,0.033,0.199-0.258c0-1.463,0-4.612,0-4.612v-10.765C92.972,103.293,91,103.072,89.579,102.584z"/>
					<path fill="#D6BFAB" d="M63.427,120.827v-4.751v-0.845v-1.688c0-1.076-0.349-2.116-0.986-2.931l-5.428-6.936
						c-0.424,0.343-0.702,0.819-0.702,1.532v10.766c0,0,0,3.148,0,4.611c0,0.291,0.199,0.258,0.199,0.258h2.218L63.427,120.827z"/>
					<path fill="#D6BFAB" d="M77.443,70.245l-1.755,2.415l-3.279,4.46c-0.853,0.093-1.599,0.093-2.452,0.093
						c-2.173,0-3.836,0.036-5.394-0.021l0.043-14.25c-2.542,1.976-4.352,4.411-5.139,6.275c-1.581,3.744-1.139,8.678-1.139,8.678
						c-1.036-0.465-0.311,3.414-0.311,3.414c0.166,1.838,0.886,3.831,2.688,3.831l0.194,1.13c0.539,2.938,1.506,4.807,3.82,6.189
						l4.681,2.008l1.895,0.688c-5.284-2.142-6.56-6.217-6.56-6.217l-0.203-1.973l0.021-7.021c1.56,0.059,3.225,0.021,5.402,0.021
						c0.853,0,1.599,0,2.452-0.093l3.279-4.459l1.081-1.489L77.443,70.245z"/>
					<polyline fill="#D6BFAB" points="84.369,68.284 85.107,70.708 82.789,75.998 82.043,70.971 79.197,74.883 76.357,78.94 
						77.037,75.214 79.197,72.13 82.043,68.218 82.882,72.442 84.369,68.284 					"/>
					<path fill="#D6BFAB" d="M79.971,94.45c0.03-0.021-3.879,7.191-11.661,5.55c0.561-0.396,0.875-0.699,0.979-1.769l0.109-3.782
						C69.399,94.45,74.817,97.133,79.971,94.45z"/>
					<path fill="#A46D4D" d="M74.685,91.107c-1.57,0-3.038-0.271-4.027-0.744c-0.403-0.192-0.508-0.578-0.234-0.861
						c0.274-0.284,0.823-0.357,1.227-0.164c0.694,0.331,1.828,0.529,3.035,0.529c1.206,0,2.34-0.198,3.035-0.529
						c0.403-0.193,0.951-0.12,1.225,0.164c0.277,0.283,0.172,0.669-0.232,0.861C77.723,90.838,76.254,91.107,74.685,91.107z"/>
					<path fill="#623F33" d="M66.391,81.87L66.391,81.87c-0.615,0-1.119-0.503-1.119-1.118v-1.119c0-0.617,0.504-1.12,1.119-1.12
						l0,0c0.616,0,1.119,0.503,1.119,1.12v1.119C67.511,81.367,67.007,81.87,66.391,81.87z"/>
					<path fill="#623F33" d="M82.059,81.87L82.059,81.87c-0.615,0-1.119-0.503-1.119-1.118v-1.119c0-0.617,0.504-1.12,1.119-1.12
						l0,0c0.615,0,1.119,0.503,1.119,1.12v1.119C83.18,81.367,82.676,81.87,82.059,81.87z"/>
					<path fill="#D6BFAB" d="M74.685,84.441c-1.296,0-2.077-0.968-2.077-0.5s0.375,1.359,2.077,1.359
						c1.702,0,2.077-0.891,2.077-1.359C76.762,83.474,75.98,84.441,74.685,84.441z"/>
					<path fill="#623F33" d="M74.943,57.194"/>
					<path fill="#754A3E" d="M90.933,78.276c0,0,1.121-5.777-0.075-9.366c0,0-2.802-11.66-15.6-11.597
						c-10.679,0.053-18.53,8.272-16.931,20.563c3.839,0.932,6.16,0.762,10.746,0.762c0.854,0,1.599,0,2.452-0.093l3.278-4.459
						l1.754-2.415l-1.086,5.941l2.84-4.057l2.847-3.912l0.746,5.028l2.318-5.29"/>
					<path fill="#FFFFFF" d="M74.76,65.513c7.789-0.125,14.613,4.779,16.201,12.901C93.076,66.231,84.5,58.83,74.76,58.499
						c-9.619-0.327-18.515,7.582-16.399,19.764C59.948,70.139,66.82,65.431,74.76,65.513"/>
					<path fill="#B58DA9" d="M72.479,58.571c-8.374,0.646-16.615,8.058-14.089,19.843c0.706-3.614,2.502-6.777,4.977-8.957
						C64.55,64.287,68.098,60.479,72.479,58.571z"/>
					<path fill="#B58DA9" d="M90.811,102.242l-4.855-2.035c-1.289-0.467-2.912-0.25-3.398,0.597
						c-1.791,3.126-3.855,5.474-7.448,5.474h-0.158h-0.532h-0.158c-3.594,0-5.657-2.348-7.448-5.474
						c-0.486-0.847-2.111-1.063-3.398-0.597l-4.854,2.035c-0.956,0.432-1.235,0.775-1.841,1.428l5.433,6.942
						c0.637,0.814,0.986,1.854,0.986,2.932v1.688v0.845v4.751h11.281h0.134h0.263h0.134H86.23v-4.751v-0.845v-1.688
						c0-1.077,0.35-2.116,0.986-2.932l5.434-6.942C92.044,103.018,91.765,102.675,90.811,102.242z"/>
				</g>
			</g>
		</g>
	</g>
</g>
</svg>
