<?xml version="1.0" encoding="utf-8"?>
<!-- Generator: Adobe Illustrator 16.0.0, SVG Export Plug-In . SVG Version: 6.00 Build 0)  -->
<!DOCTYPE svg PUBLIC "-//W3C//DTD SVG 1.1//EN" "http://www.w3.org/Graphics/SVG/1.1/DTD/svg11.dtd">
<svg version="1.1" id="Capa_1" xmlns="http://www.w3.org/2000/svg" xmlns:xlink="http://www.w3.org/1999/xlink" x="0px" y="0px" viewBox="29.167 29.167 91.667 91.667" enable-background="new 29.167 29.167 91.667 91.667"
	 xml:space="preserve">
<g>
	<g>
		<g>
			<circle id="SVGID_1_" fill="#FFFFFF" cx="75" cy="75" r="45.912"/>
		</g>
		<g>
			<g>
				<defs>
					<circle id="SVGID_2_" cx="75" cy="75" r="45.912"/>
				</defs>
				<clipPath id="SVGID_3_">
					<use xlink:href="#SVGID_2_"  overflow="visible"/>
				</clipPath>
				<g clip-path="url(#SVGID_3_)">
					<path fill="#E0D0C1" d="M56.319,51.674c-4.099,6.214-1.41,17.232-1.41,17.232c-0.141,0.496-0.617,1.573-0.617,2.116
						c0,0.772,0.181,1.354-0.125,2.309c0.235,0.62,0.177,0.623,0.235,1.294c0.19,2.209,0.931,4.258,3.104,4.49l0.132,1.451
						c1.121,3.721,2.212,5.863,4.494,7.457l5.402,2.414v4.338c-0.142,1.277-0.691,2.186-1.714,2.551l-1.803,0.646
						c-0.648-0.594-0.988,0.679-1.828,0.978l-6.002,1.299c-1.06,1.451-3.851,1.809-4.09,3.864l-1.102,9.45l-0.063-0.008
						c-0.405-0.049-0.77,0.266-0.815,0.699l-0.115,1.098c-0.044,0.436,0.248,0.826,0.654,0.876l1.834,0.219v3.13
						c0,1.484,1.456,1.313,2.842,1.313h6.024h27.583h6.096c1.385,0,2.592,0.172,2.592-1.313v-3.13l1.834-0.22
						c0.404-0.048,0.697-0.439,0.651-0.875L100,114.254c-0.045-0.434-0.41-0.746-0.816-0.699l-0.063,0.008l-1.101-9.45
						c-0.241-2.056-1.898-2.872-3.73-3.526l-6.021-1.547c-0.84-0.299-1.521-1.661-2.17-1.068l-1.803-0.645
						c-1.023-0.367-1.715-1.394-1.715-2.553l0.061-4.311l5.342-2.438c2.803-1.253,4.056-4.37,4.628-7.448v-1.345
						c2.077,0,2.927-1.63,2.927-3.857c0-0.674,0.393-1.311,0.408-2.042c0.273-0.665,0.427-1.399,0.427-2.17
						c0-0.545,0.015-2.141-1.599-3.556c0.27-1.212,0.27-1.212,0.27-2.71c0-0.545,0.545-0.762,0.404-1.257
						c-0.414-1.233,0.27-1.737,0.27-3.235c0-2.587-0.449-3.502-0.811-5.261c0.124-0.468-6.81-6.503-7.611-5.922
						c-0.684-2.098-2.525-3.611-4.715-3.611c-1.236,0-2.355,0.498-3.229,1.294c-0.875-1.574-2.462-2.639-4.294-2.639
						c-1.833,0-3.419,1.065-4.294,2.639c-0.875-0.796-1.992-1.294-3.228-1.294c-2.189,0-4.032,1.514-4.716,3.611
						C58.345,48.211,56.319,51.674,56.319,51.674z"/>
					<path fill="#CEB39F" d="M63.181,65.158l5.03-10.623c-3.644-6.021-11.043,2.593-11.924,4.818
						c-3.348-3.442-1.378,9.554-1.378,9.554c-1.457,1.168-0.522,4.801-0.522,4.801c0.185,2.194,0.29,4.941,3.12,5.408l0.066,0.723
						c0.604,3.508,2.54,7.246,4.56,8.186l4.922,2.199l3.096,1.365c-5.921-2.557-5.942-6.128-5.942-6.128l-0.757-4.353l-0.135-12.086
						L63.181,65.158z"/>
					<path fill="#CEB39F" d="M79.949,91.67c-1.521,0.682-3.153,1.035-4.801,1.035c-1.649,0-3.28-0.352-4.803-1.035l-2.812-1.195
						l-0.002,4.301c-0.14,1.285-0.495,1.852-1.249,2.328c10.467,1.974,16.351-6.633,16.354-6.641L79.949,91.67z"/>
					<g>
						<g>
							<path fill="#A46D4D" d="M75.243,85.251c-1.593,0-3.083-0.274-4.088-0.757c-0.409-0.194-0.516-0.586-0.237-0.873
								c0.278-0.287,0.835-0.361,1.245-0.166c0.705,0.337,1.855,0.537,3.08,0.537s2.375-0.201,3.08-0.537
								c0.41-0.197,0.967-0.121,1.245,0.166s0.173,0.68-0.237,0.873C78.325,84.977,76.836,85.251,75.243,85.251z"/>
						</g>
					</g>
					<g>
						<path fill="#623F33" d="M66.89,72.376L66.89,72.376c-0.727,0-1.321-0.595-1.321-1.321v-1.321c0-0.727,0.594-1.321,1.321-1.321
							l0,0c0.727,0,1.321,0.594,1.321,1.321v1.321C68.212,71.782,67.617,72.376,66.89,72.376z"/>
					</g>
					<g>
						<path fill="#623F33" d="M83.609,72.376L83.609,72.376c-0.728,0-1.322-0.595-1.322-1.321v-1.321
							c0-0.727,0.595-1.321,1.322-1.321l0,0c0.725,0,1.32,0.594,1.32,1.321v1.321C84.93,71.782,84.336,72.376,83.609,72.376z"/>
					</g>
					<path fill="#B7A292" d="M75.284,76.071c-1.453,0-2.328-1.085-2.328-0.56c0,0.523,0.42,1.521,2.328,1.521
						c1.905,0,2.325-0.997,2.325-1.521C77.609,74.986,76.734,76.071,75.284,76.071z"/>
					<path fill="#375063" d="M103.241,120.889v-2.636v-3.498v-7.552c0-5.191-6.947-6.514-17.286-9.951
						c-0.71-0.238-1.432-0.471-2.167-0.715H81.65l-0.988,0.822l-5.599,4.679l-0.03-0.026l-5.594-4.673l-0.975-0.817h-2.258
						c-0.681,0.223-1.355,0.438-2.011,0.649c-10.423,3.396-16.805,4.396-17.437,10.011v7.573v3.477v2.657H103.241z"/>
					<polygon fill="#45697F" points="75.057,101.941 71.451,106.771 65.403,97.095 65.338,96.99 65.246,96.835 65.285,96.777 
						67.18,94.182 67.975,94.963 69.124,96.09 70,96.956 75.03,101.912 					"/>
					<polygon fill="#45697F" points="84.867,96.835 84.855,96.858 84.851,96.864 84.721,97.076 84.699,97.11 78.723,106.674 
						78.663,106.771 75.057,101.941 80.092,96.979 80.979,96.105 82.139,94.963 82.144,95.015 82.934,94.182 					"/>
					<path fill="#14A89A" d="M77.354,105.004l-2.3,2.992l-2.301-2.992l2.301-2.992L77.354,105.004z"/>
					<rect x="57.853" y="114.722" fill="#7F97A3" width="8.539" height="1.884"/>
					<rect x="82.637" y="114.722" fill="#7F97A3" width="8.539" height="1.884"/>
					<polygon fill="#14A89A" points="77.678,120.889 76.166,105.324 73.948,105.324 72.436,120.889 					"/>
					<path fill="#754A3E" d="M96.676,45.134c-0.135-1.068-1.224-0.907-2.298-0.84c-3.353,0.21-4.171-0.919-11.015-4.949
						c-6.82-4.016-13.801-2.414-18.452,1.042c-19.867,9.476-7.866,34.456-7.866,34.456s0.541-15.234,5.541-20.409
						c11.081,7.555,22.402,7.965,28.849,3.472c1.33,6.043,1.162,16.937,1.162,16.937s4.791-11.258,2.455-20.801
						C96.484,51.618,97.114,48.616,96.676,45.134z"/>
					<path fill="#623F33" d="M83.603,81.676c-2.497-2.607-7.681-2.885-8.265-2.908c-0.037-0.001-0.073-0.001-0.11,0
						c-0.583,0.023-5.767,0.301-8.265,2.908c-0.251,0.264-0.39,0.613-0.387,0.977c0.032,3.598,0.635,7.018,0.691,7.161
						c0.088,0.229,0.235,0.431,0.427,0.585c0.118,0.095,3.61,2.305,7.585,2.305c3.976,0,7.473-2.209,7.589-2.303
						c0.193-0.155,0.342-0.357,0.429-0.587c0.056-0.146,0.66-3.563,0.691-7.16C83.994,82.289,83.854,81.939,83.603,81.676z
						 M80.832,88.43c-0.506,0.33-2.329,0.973-3.81,1.293v-1.869c0-0.962-0.779-1.741-1.742-1.741c-0.962,0-1.742,0.779-1.742,1.741
						v1.869c-1.48-0.32-3.301-0.963-3.805-1.293c-0.283-0.838-0.227-2.947-0.35-5.184c1.616-1.225,4.69-1.633,5.899-1.691
						c1.21,0.06,4.283,0.467,5.898,1.689C81.06,85.471,81.115,87.588,80.832,88.43z"/>
					<path fill="#6D443D" d="M67.784,41.5c0,0,10.031-5.673,22.472,4.408c0,0,1.141,0.881,3.894,0.475
						c2.751-0.407-2.954,10.194-6.042,10.691c0,0-13.829,3.209-23.407-6.51l-3.111-4.25L67.784,41.5z"/>
				</g>
			</g>
		</g>
	</g>
</g>
</svg>
