<?xml version="1.0" encoding="utf-8"?>
<!-- Generator: Adobe Illustrator 16.0.0, SVG Export Plug-In . SVG Version: 6.00 Build 0)  -->
<!DOCTYPE svg PUBLIC "-//W3C//DTD SVG 1.1//EN" "http://www.w3.org/Graphics/SVG/1.1/DTD/svg11.dtd">
<svg version="1.1" id="Capa_1" xmlns="http://www.w3.org/2000/svg" xmlns:xlink="http://www.w3.org/1999/xlink" x="0px" y="0px" viewBox="0 0 150 150" enable-background="new 0 0 150 150" xml:space="preserve">
<g>
	<defs>
		<circle id="SVGID_1_" cx="74.565" cy="74.916" r="74.565"/>
	</defs>
	<clipPath id="SVGID_2_">
		<use xlink:href="#SVGID_1_"  overflow="visible"/>
	</clipPath>
	<path clip-path="url(#SVGID_2_)" fill="#E0D0C1" d="M46.413,46.514c-5.984,9.073-2.058,25.159-2.058,25.159
		c-0.205,0.724-0.899,2.294-0.899,3.091c0,1.126,0.263,1.973-0.183,3.37c0.343,0.903,0.258,0.908,0.343,1.888
		c0.278,3.227,1.359,6.216,4.532,6.555l0.193,2.121c1.636,5.432,3.229,8.561,6.561,10.885l7.885,3.524v6.332
		c-0.207,1.866-1.008,3.191-2.503,3.726l-2.631,0.941c-0.947-0.865-1.443,0.991-2.668,1.43l-8.763,1.892
		c-1.548,2.121-5.623,2.643-5.973,5.644l-1.608,13.796l-0.091-0.011c-0.591-0.071-1.125,0.388-1.19,1.021l-0.167,1.604
		c-0.065,0.636,0.361,1.207,0.954,1.279l2.679,0.317v4.57c0,2.168,2.125,1.916,4.148,1.916h8.796h40.268h8.899
		c2.021,0,3.783,0.252,3.783-1.916v-4.57l2.678-0.319c0.593-0.07,1.019-0.642,0.952-1.277l-0.165-1.604
		c-0.065-0.635-0.601-1.09-1.189-1.021l-0.095,0.011l-1.607-13.796c-0.352-3.001-2.769-4.191-5.444-5.147l-8.794-2.257
		c-1.224-0.44-2.221-2.426-3.164-1.563l-2.632-0.941c-1.498-0.534-2.506-2.035-2.506-3.724l0.089-6.296l7.798-3.561
		c4.095-1.829,5.922-6.378,6.758-10.875v-1.962c3.031,0,4.271-2.38,4.271-5.631c0-0.984,0.574-1.914,0.597-2.98
		c0.398-0.97,0.623-2.043,0.623-3.169c0-0.796,0.021-3.125-2.333-5.192c0.394-1.769,0.394-1.769,0.394-3.955
		c0-0.795,0.796-1.113,0.591-1.836c-0.605-1.799,0.392-2.536,0.392-4.723c0-3.777-0.654-5.113-1.182-7.679
		c0.181-0.684-9.942-9.495-11.113-8.646c-0.999-3.063-3.688-5.272-6.884-5.272c-1.804,0-3.438,0.726-4.713,1.89
		c-1.278-2.297-3.594-3.853-6.269-3.853s-4.992,1.556-6.27,3.853c-1.276-1.164-2.908-1.89-4.713-1.89
		c-3.196,0-5.886,2.21-6.885,5.272C49.37,41.458,46.413,46.514,46.413,46.514z"/>
	<path clip-path="url(#SVGID_2_)" fill="#CEB39F" d="M56.431,66.2l7.344-15.508c-5.319-8.79-16.122,3.786-17.407,7.033
		c-4.888-5.025-2.012,13.948-2.012,13.948c-2.126,1.706-0.763,7.009-0.763,7.009c0.27,3.203,0.423,7.213,4.556,7.895l0.096,1.056
		c0.881,5.121,3.709,10.578,6.658,11.95l7.185,3.211l4.522,1.992c-8.646-3.732-8.675-8.946-8.675-8.946l-1.106-6.353l-0.198-17.644
		L56.431,66.2z"/>
	<path clip-path="url(#SVGID_2_)" fill="#CEB39F" d="M80.911,104.906c-2.223,0.997-4.602,1.509-7.01,1.509
		c-2.408,0-4.789-0.512-7.012-1.509l-4.104-1.745l-0.003,6.277c-0.205,1.877-0.723,2.705-1.824,3.399
		c15.279,2.883,23.872-9.685,23.878-9.695L80.911,104.906z"/>
	<path clip-path="url(#SVGID_2_)" fill="#A46D4D" d="M74.04,95.534c-2.326,0-4.501-0.402-5.967-1.104
		c-0.598-0.284-0.754-0.855-0.347-1.274c0.407-0.42,1.22-0.529,1.818-0.244c1.03,0.493,2.709,0.786,4.496,0.786
		c1.787,0,3.468-0.293,4.496-0.786c0.598-0.285,1.412-0.176,1.818,0.244c0.404,0.419,0.252,0.99-0.345,1.274
		C78.541,95.132,76.364,95.534,74.04,95.534z"/>
	<path clip-path="url(#SVGID_2_)" fill="#623F33" d="M61.846,77.528L61.846,77.528c-1.062,0-1.929-0.868-1.929-1.929v-1.928
		c0-1.063,0.868-1.931,1.929-1.931l0,0c1.061,0,1.929,0.868,1.929,1.931V75.6C63.775,76.66,62.906,77.528,61.846,77.528z"/>
	<path clip-path="url(#SVGID_2_)" fill="#623F33" d="M86.255,77.528L86.255,77.528c-1.063,0-1.931-0.868-1.931-1.929v-1.928
		c0-1.063,0.868-1.931,1.931-1.931l0,0c1.059,0,1.926,0.868,1.926,1.931V75.6C88.184,76.66,87.313,77.528,86.255,77.528z"/>
	<path clip-path="url(#SVGID_2_)" fill="#B7A292" d="M74.101,83.053c-2.121,0-3.397-1.581-3.397-0.816
		c0,0.766,0.613,2.223,3.397,2.223c2.782,0,3.395-1.457,3.395-2.223C77.495,81.472,76.217,83.053,74.101,83.053z"/>
	<path clip-path="url(#SVGID_2_)" fill="#A3DDD6" d="M114.917,149.697v-4.077v-5.411v-11.677c0-8.031-10.144-10.072-25.237-15.39
		c-1.037-0.368-2.092-0.729-3.165-1.105h-3.122l-1.439,1.272l-8.175,7.233l-0.043-0.042l-8.166-7.225l-1.425-1.265h-3.296
		c-0.993,0.344-1.978,0.678-2.937,1.004c-15.215,5.25-24.534,6.8-25.456,15.482v11.711v5.377v4.111H114.917L114.917,149.697z"/>
	<polygon clip-path="url(#SVGID_2_)" fill="#65C6BB" points="73.769,119.899 68.504,126.953 59.676,112.825 59.58,112.673 
		59.445,112.446 59.502,112.363 62.269,108.574 63.43,109.713 65.107,111.355 66.387,112.622 73.73,119.859 	"/>
	<polygon clip-path="url(#SVGID_2_)" fill="#65C6BB" points="88.092,112.446 88.075,112.48 88.066,112.488 87.876,112.8 
		87.847,112.849 79.121,126.81 79.032,126.953 73.769,119.899 81.119,112.655 82.415,111.382 84.108,109.713 84.116,109.789 
		85.269,108.574 	"/>
	<path clip-path="url(#SVGID_2_)" fill="#42404D" d="M77.122,124.37l-3.358,4.37l-3.357-4.37l3.357-4.366L77.122,124.37z"/>
	<polygon clip-path="url(#SVGID_2_)" fill="#42404D" points="77.597,149.697 75.389,125.628 72.15,125.628 69.942,149.697 	"/>
	<path clip-path="url(#SVGID_2_)" fill="#754A3E" d="M206.542-5.531c-0.196-1.56-1.786-1.324-3.354-1.227
		c-4.895,0.307-6.091-1.342-16.082-7.226c-9.958-5.861-20.146-3.524-26.938,1.522c-29.006,13.835-11.484,50.304-11.484,50.304
		s0.79-22.241,8.089-29.796c16.177,11.03,32.706,11.63,42.117,5.07c1.941,8.822,1.698,24.726,1.698,24.726
		s6.994-16.437,3.584-30.369C206.263,3.936,207.182-0.448,206.542-5.531z"/>
	<path clip-path="url(#SVGID_2_)" fill="#6D443D" d="M164.361-10.836c0,0,14.643-8.282,32.808,6.434c0,0,1.664,1.288,5.684,0.693
		c4.016-0.594-4.312,14.883-8.821,15.609c0,0-20.188,4.686-34.173-9.504l-4.538-6.203L164.361-10.836z"/>
	<path clip-path="url(#SVGID_2_)" fill="#F4F4F4" d="M121.412,149.672l-2.362-15.705c-0.03-1.303-0.123-2.615-0.312-3.936
		c-1.528-10.678-14.63-10.682-30.206-17.668c0,0-0.023,20.352-0.174,37.309H121.412z"/>
	<path clip-path="url(#SVGID_2_)" fill="#F4F4F4" d="M58.73,149.705c-0.019-16.99-0.042-37.342-0.042-37.342
		c-15.956,6.986-29.378,6.99-30.945,17.668c-0.193,1.32-0.289,2.633-0.318,3.936l-2.554,15.738H58.73z"/>
	<polygon clip-path="url(#SVGID_2_)" fill="#E6E7E8" points="55.431,132.396 51.474,138.329 53.376,149.697 58.73,149.688 
		58.878,111.648 49.865,116.745 50.277,127.863 	"/>
	<polygon clip-path="url(#SVGID_2_)" fill="#E6E7E8" points="94.214,149.701 95.914,138.271 91.924,132.352 97.051,127.774 
		97.402,116.631 88.358,111.585 88.358,149.676 	"/>
	<path clip-path="url(#SVGID_2_)" fill="#A7A9AC" d="M62.784,106.948l0.001-1.514c-13.958,5.6-16.871,32.057-16.627,33.525
		l0.127,0.767l1.535-0.254l-0.127-0.769C47.636,138.363,49.865,114.129,62.784,106.948z"/>
	<path clip-path="url(#SVGID_2_)" fill="#A7A9AC" d="M105.227,139.562c-1.452,0.049-2.841-0.225-4.146-0.741
		c3.688-4.094,5.221-10.521,4.171-15.852c-1.038-5.267-4.427-8.149-8.845-7.521c-4.416,0.628-6.867,4.337-6.397,9.685
		c0.475,5.415,3.736,11.16,8.419,14.064c-1.107,0.859-2.366,1.51-3.774,1.867c-0.419,0.104-0.671,0.527-0.565,0.944
		c0.1,0.39,0.475,0.635,0.862,0.58c0.027-0.005,0.055-0.011,0.084-0.018c1.851-0.47,3.472-1.376,4.858-2.582
		c1.67,0.772,3.48,1.191,5.388,1.126c0.029,0,0.055-0.002,0.085-0.009c0.39-0.055,0.679-0.394,0.664-0.796
		C106.018,139.883,105.658,139.544,105.227,139.562z M91.56,124.997c-0.19-2.163-0.076-7.277,5.067-8.01
		c5.145-0.73,6.677,4.148,7.099,6.282c0.997,5.056-0.509,11.182-4.097,14.856C95.162,135.597,92.011,130.133,91.56,124.997z"/>
	<path clip-path="url(#SVGID_2_)" fill="#42404D" d="M93.816,143.207c-0.451,0.063-0.906,0.104-1.37,0.12
		c-0.644,0.023-1.186-0.479-1.209-1.122c-0.025-0.646,0.479-1.179,1.122-1.211c0.756-0.027,1.495-0.133,2.197-0.311
		c0.61-0.157,1.26,0.222,1.419,0.847c0.156,0.626-0.221,1.26-0.847,1.418C94.701,143.055,94.261,143.144,93.816,143.207z"/>
	<path clip-path="url(#SVGID_2_)" fill="#42404D" d="M106.628,141.386c-0.445,0.063-0.892,0.102-1.332,0.119
		c-0.646,0.021-1.188-0.482-1.209-1.126c-0.021-0.644,0.491-1.19,1.127-1.207c0.724-0.025,1.465-0.131,2.197-0.313
		c0.628-0.152,1.259,0.225,1.414,0.849c0.156,0.625-0.223,1.26-0.847,1.414C107.529,141.233,107.076,141.322,106.628,141.386z"/>
	<circle clip-path="url(#SVGID_2_)" fill="#E6E7E8" cx="46.925" cy="135.097" r="4.668"/>
	<path clip-path="url(#SVGID_2_)" fill="#A7A9AC" d="M46.925,130.427c2.579,0,4.669,2.09,4.669,4.668s-2.09,4.67-4.669,4.67
		c-2.577,0-4.667-2.092-4.667-4.67S44.348,130.427,46.925,130.427 M46.925,128.871c-3.431,0-6.224,2.794-6.224,6.224
		c0,3.434,2.792,6.226,6.224,6.226c3.433,0,6.225-2.792,6.225-6.226C53.15,131.665,50.357,128.871,46.925,128.871L46.925,128.871z"
		/>
	<path clip-path="url(#SVGID_2_)" fill="#A7A9AC" d="M50.254,135.095c0,1.838-1.49,3.33-3.329,3.33c-1.837,0-3.329-1.49-3.329-3.33
		c0-1.838,1.491-3.328,3.329-3.328C48.764,131.767,50.254,133.257,50.254,135.095z"/>
	<path clip-path="url(#SVGID_2_)" fill="#A7A9AC" d="M96.505,115.876l-1.49,0.691c0.021-0.156-0.221-5.479-10.179-9.219v-1.387
		c10.451,3.713,11.241,8.802,11.563,9.962"/>
</g>
<path fill="#3C2415" d="M103.929,43.988c1.903-2.292,3.269-5.035,3.104-8.128c-1.986,0.339-3.711,0.432-5.237,0.375
	c1.137-1.16,1.473-2.399,1.57-3.008c0.027-0.167-0.196-0.282-0.39-0.208c-5.778,2.172-12.779-0.481-12.779-0.481v0.002
	c-4.59-1.777-9.384-2.716-16.457-2.568c-23.39-0.016-30.192,14.017-30.192,14.017c-5.239,9.657-3.775,22.922,2.402,35.28
	c0.113,0.209,0.232,0.415,0.353,0.62c-0.256-0.984-0.444-1.988-0.545-3.013c0.075-3.963-0.491-8.196,0.155-7.744
	c4.715-4.908,6.33-14.884,6.33-14.884s9.883,1.662,21.499,2.046c11.615-0.384,21.495-2.046,21.495-2.046s1.604,9.976,6.321,14.884
	c0.646-0.453,0.087,3.781,0.163,7.744c-0.102,1.024-0.288,2.028-0.547,3.013c0.123-0.205,0.242-0.411,0.354-0.62
	C107.705,66.911,109.168,53.646,103.929,43.988z"/>
<g>
	<path fill="#D6D6D6" d="M40.583,52.902c-0.309,2.06-0.496,4.181-0.554,6.356c10.661-4.983,36.547-13.73,67.277-0.198
		c-0.061-2.166-0.046-4.263-0.359-6.309C78.01,41.091,53.134,47.667,40.583,52.902z"/>
	<circle fill="#D6D6D6" cx="73.683" cy="49.475" r="8.42"/>
	<path fill="#A7A9AC" d="M73.681,41.055c4.65,0,8.422,3.77,8.422,8.42c0,4.651-3.772,8.419-8.422,8.419
		c-4.649,0-8.418-3.768-8.418-8.419C65.263,44.825,69.032,41.055,73.681,41.055 M73.681,38.809c-5.879,0-10.663,4.785-10.663,10.666
		c0,5.88,4.783,10.665,10.663,10.665S84.35,55.355,84.35,49.475C84.35,43.594,79.561,38.809,73.681,38.809L73.681,38.809z"/>
	<g>
		<path fill="#F1F2F2" d="M77.287,49.475c0,1.99-1.615,3.602-3.606,3.602c-1.987,0-3.602-1.612-3.602-3.602
			c0-1.988,1.614-3.602,3.602-3.602C75.672,45.873,77.287,47.487,77.287,49.475z"/>
	</g>
</g>
</svg>
