<?xml version="1.0" encoding="utf-8"?>
<!-- Generator: Adobe Illustrator 18.1.1, SVG Export Plug-In . SVG Version: 6.00 Build 0)  -->
<svg version="1.1" id="Capa_1" xmlns="http://www.w3.org/2000/svg" xmlns:xlink="http://www.w3.org/1999/xlink" x="0px" y="0px"
	 viewBox="0 0 149.8 149.8" enable-background="new 0 0 149.8 149.8" xml:space="preserve">
<g>
	<g>
		<g>
			<ellipse id="SVGID_2_" fill="#FFFFFF" cx="74.6" cy="75.3" rx="65.8" ry="65.2"/>
		</g>
		<g>
			<g>
				<defs>
					<ellipse id="SVGID_1_" cx="74.6" cy="75.3" rx="65.8" ry="65.2"/>
				</defs>
				<clipPath id="SVGID_3_">
					<use xlink:href="#SVGID_1_"  overflow="visible"/>
				</clipPath>
				<g clip-path="url(#SVGID_3_)">
					<path fill="#15B0BF" d="M73.9,141.5c20.3,0,39.4-2.9,56.4-8l-4.1-31.5c-0.5-3.8-7.7-6.6-16.4-7.5c-24-2.6-47.7-2.6-71.7,0
						c-8.8,0.9-15.9,3.6-16.4,7.5l-4.1,31.5C34.6,138.6,53.7,141.5,73.9,141.5z"/>
					<path fill="#1695A4" d="M130.3,133.5l-4.1-31.5c-0.5-3.8-7.7-6.6-16.4-7.5c-12.5-1.3-24.8-2-37.2-1.9l-11.2,16l44.4,30.5
						C114.4,137.7,122.5,135.8,130.3,133.5z"/>
					<path fill="#FFEADC" d="M89.5,100c-0.5,7.2-8,12.2-16.5,12.2l0,0c-8.6,0-16-5.1-16.5-12.2c-0.2-3.6-0.4-7.3-0.7-10.9
						c-0.5-7.2,7.1-13.8,17.3-13.7l0,0c10,0,17.8,6.7,17.1,13.8C90,92.7,89.7,96.3,89.5,100z"/>
					<path fill="#FFDCCA" d="M78.6,75.9c-4.2,2-7.1,9-7,17.3c0,5.1,0,10.2,0.1,15.3c0,1.2,0.1,2.4,0.2,3.6c0.4,0,0.8,0,1.1,0
						c8.6,0,16-5.1,16.5-12.2c0.1-2,0.2-4,0.4-6c0.3-4.1-0.2-8.1-1.3-11.2C86.6,79.7,83,77.1,78.6,75.9z"/>
					<path fill="#D3C0B2" d="M73.1,37.7L73.1,37.7L73.1,37.7c-0.1,0-0.1,0-0.1,0l0,0c-18.5-0.2-22.9,11.7-21.8,32.6
						c0.4,8.1,2.3,14.3,4.2,18.8c0.6,1.5,9.7,12.3,12.6,12.3c1.2,0,3.4,0.5,5.2,0.3c1.8,0.1,3.9-0.3,5.1-0.3
						c2.7,0,12-10.7,12.6-12.3c1.8-4.7,3.8-10.7,4.2-18.8C95.8,50,89.8,37.2,73.1,37.7z"/>
					<path fill="#FFEADC" d="M56.5,75.9c0.1,2.2-1.1,4.1-2.6,4.4l0,0c-1.5,0.2-2.9-1.4-3-3.5c-0.2-3.5-0.4-7.1-0.5-10.5
						c-0.1-2.2,1.1-4.1,2.7-4.4l0,0c1.6-0.2,3,1.4,3.1,3.6C56.2,68.9,56.3,72.5,56.5,75.9z"/>
					<path fill="#FFDCCA" d="M94.6,76.7c-0.1,2.2-1.4,3.7-3,3.5l0,0c-1.5-0.2-2.7-2.1-2.6-4.4c0.1-3.5,0.3-7.1,0.4-10.6
						c0.1-2.2,1.4-3.8,3.1-3.6l0,0c1.6,0.2,2.7,2.2,2.7,4.4C95,69.7,94.8,73.2,94.6,76.7z"/>
					<path fill="#FFEADC" d="M90.4,66.3c-0.4-9.5,0.8-18.2,0.9-18.2c0,0-9-4.7-16.1-4.4c-0.7,0-1.5,0.2-2.4,0.6
						c-0.9-0.3-1.7-0.5-2.4-0.6c-7-0.3-16.1,4.4-16.1,4.4s1.3,8.7,0.9,18.2c-0.4,9.5-1.7,17.8,1.4,20.4c3.2,2.6,8.7,8.7,15.8,9
						c0.1,0,0.3,0,0.4,0s0.3,0,0.4,0c7.3-0.3,12.7-6.4,15.8-9C92.2,84.1,90.9,75.8,90.4,66.3z"/>
					<path fill="#FFDCCA" d="M93.2,48c0,0-9.9-4.7-17.7-4.4c-0.6,0-1.3,0.2-1.9,0.4c0,17.2-0.1,34.5-0.1,51.7
						c7.9-0.4,13.8-6.4,17.3-9c3.5-2.6,2-10.9,1.5-20.4C91.7,56.8,93.2,48,93.2,48z"/>
					<g>
						<path fill="#0E303F" d="M52.2,65.8c0,0-1.8-20-3.3-22.1c-1.4-2.1,17.7-6.2,23.3-6.3c5.6-0.3,10.7,1.4,14,2.1
							c3.1,0.6-12.4,12.7-12.1,12.8c0.3-1.1,0.7-2.1,1.1-3.2c-1.2,0.9-2.3,1.8-3.6,2.7c-4.8-1.2-9.7-2.3-14.6-3.3
							c0,2.6,0.1,5.2,0.1,7.9c-0.9,1.3-1.9,2.6-2.9,4c-0.2,1.7-0.4,3.4-0.6,5.2C53.1,65.7,52.6,65.7,52.2,65.8z"/>
						<path fill="#0E303F" d="M95.4,65.4c0,0,3.7-14.4-0.5-20.5c-3.7-5.5-15.9-7.8-21.5-7.8c-5.6-0.3-10.2,1.4-13.6,2.1
							c-2,0.3,16.5-0.6,21.8,2.7c1.8,1-5.4,9.7-5.3,9.7c4.1-1.2,8.3-2.3,12.5-3.3c0,2.6-0.1,5.2-0.1,7.9c0.9,1.3,1.9,2.6,2.9,4
							c0.2,1.7,0.4,3.4,0.6,5.2C92.4,65.4,95,65.4,95.4,65.4z"/>
					</g>
					<path fill="#D3C0B2" d="M82.8,83.9c-0.9-1.4-4-2.5-7.9-2.5c0,0-1.3,0.9-1.4,0.8c-0.1-0.1-1.3-0.8-1.3-0.8c-3.9,0-7,1.2-8,2.5
						c-5.7,10.9-7.9,1.2-10.4-1.9c4.3,9.9,8.3,17.1,19.3,18.7c0.1,0,0.2,0,0.4,0c0.1,0,3.5-0.4,3.6-0.4c6.8,0,11.8-8.4,16.1-18.3
						C90.7,85.1,88.6,94.8,82.8,83.9z"/>
					<g>
						<path fill="#FFDCCA" d="M68.9,86c-0.1,0.2-0.1,0.4-0.1,0.6c0,1.4,1.3,2.6,3.1,2.6h3.4c1.6,0,3.1-1.2,3.1-2.6
							c0-0.2,0-0.4-0.1-0.6H68.9z"/>
					</g>
				</g>
			</g>
		</g>
	</g>
</g>
</svg>
