<?xml version="1.0" encoding="utf-8"?>
<!-- Generator: Adobe Illustrator 18.1.1, SVG Export Plug-In . SVG Version: 6.00 Build 0)  -->
<svg version="1.1" id="Capa_1" xmlns="http://www.w3.org/2000/svg" xmlns:xlink="http://www.w3.org/1999/xlink" x="0px" y="0px"
	 viewBox="0 0 149 149" enable-background="new 0 0 149 149" xml:space="preserve">
<g>
	<g>
		<defs>
			<circle id="SVGID_1_" cx="74.5" cy="74.5" r="64.5"/>
		</defs>
		<use xlink:href="#SVGID_1_"  overflow="visible" fill="#FFFFFF"/>
		<clipPath id="SVGID_2_">
			<use xlink:href="#SVGID_1_"  overflow="visible"/>
		</clipPath>
		<g clip-path="url(#SVGID_2_)">
			<path fill="#97998A" d="M102,58.2c0,11.4-12.2,20.6-27.2,20.6c-15,0-27.3-9.2-27.3-20.6c0-5.7,1.8-9.4,6.8-13.1
				c1-0.7,3.5-0.7,4.5,0.2c0,0,0.1-3.6,5.3-6c3.1-1.4,6.9-1.6,10.7-1.6C89.8,37.6,102,46.9,102,58.2z"/>
			<path fill="#78796C" d="M84.2,38.9c8.6,3.5,14.5,10.3,14.5,18.1c0,11.3-12.2,20.6-27.2,20.6c-3.3,0-6.5-0.5-9.5-1.3
				c3.8,1.5,8.2,2.4,12.8,2.4c15,0,27.2-9.2,27.2-20.6C102,49.4,94.6,41.9,84.2,38.9z"/>
			<path fill="#97998A" d="M74.7,43.4c-14.7-0.7-28.3,10.2-24.3,26.5c4,15.7,13.7,23,24.3,23c10.6,0,20.3-7.3,24.3-23
				C103,53.7,89.4,42.8,74.7,43.4z"/>
			<path fill="#78796C" d="M76.8,43.4c-13.5-0.7-26,10.2-22.2,26.5c3.7,15.7,12.6,23,22.2,23c9.7,0,18.6-7.3,22.2-23
				C102.7,53.7,90.3,42.8,76.8,43.4z"/>
			<path fill="#78796C" d="M76.1,43.4c-12.8-0.7-24.7,11-21.2,28.6c3.5,16.9,12,24.8,21.2,24.8c9.2,0,17.7-7.9,21.2-24.8
				C100.8,54.5,89,42.7,76.1,43.4z"/>
			<path fill="#15B0BF" d="M74.8,141.6c14.7,0,28.6-2.4,40.9-6.6l-3-25.9c-0.4-3.2-5.5-5.7-11.9-6.2c-17.2-3.1-34.7-3.1-52,0
				c-6.4,0.4-11.6,3-11.9,6.2l-3,25.9C46.2,139.2,60.1,141.6,74.8,141.6z"/>
			<path fill="#FFECDE" d="M94,102.7c0-0.3,0-0.5,0-0.8c-12.7-2.2-25.6-2.2-38.3,0c0,0.3,0,0.5,0,0.8c0,8.5,8.6,22.9,19.2,22.9
				C85.4,125.6,94,111.2,94,102.7z"/>
			<path fill="#FFECDE" d="M85.4,95.2c0-0.3,0-0.6,0-0.9c-7-2.7-14.1-2.7-21.1,0c0,0.3,0,0.6,0,0.9c0,10.2,4.7,18.5,10.6,18.5
				C80.6,113.7,85.4,105.4,85.4,95.2z"/>
			<path fill="#FFDCC5" d="M85.4,88.4c0-0.3,0-0.6,0-0.9c-7-2.5-14.1-2.5-21.1,0c0,0.3,0,0.6,0,0.9c0,9.6,4.7,17.3,10.6,17.3
				C80.6,105.7,85.4,98,85.4,88.4z"/>
			<path fill="#FFDCC5" d="M77.5,92.4V113c4.5-2.1,7.8-9.3,7.8-17.8c0-0.3,0-0.6,0-0.9C82.7,93.3,80.1,92.7,77.5,92.4z"/>
			<path fill="#FFECDE" d="M75,43.5c-12.4-0.9-24,11.8-20.7,30.9c3.2,18.4,11.4,27.1,20.2,27.1c8.9,0.1,17.2-8.4,20.7-26.8
				C98.8,55.6,87.4,42.7,75,43.5z"/>
			<path fill="#FFDCC5" d="M75,43.5c-0.2,0-0.4,0-0.6,0v58.1c0,0,0.1,0,0.1,0c8.9,0.1,17.2-8.4,20.7-26.8
				C98.8,55.6,87.4,42.7,75,43.5z"/>
			<path fill="#78796C" d="M59.5,49.3c-5,5.5-7.7,13.8-5.8,24c0.2,1.2,0.5,2.3,0.7,3.4c2.1-3.8,3.8-8.6,5-14.3
				C60.4,57.5,60.4,53.2,59.5,49.3z"/>
			<path fill="#97998A" d="M76.5,42.9c-4.5-3.5-8.7-4.5-12-2.6c-7.9,1.4-3.5,22.9-3.5,22.9s7.2,13.4,10.8,14.2l-4.1-8.7
				c0,0,5.5,6.8,9,8c6.2,2,16.7-1.5,16.7-1.5c0-0.2,0-0.4,0-0.7c0.8-0.5,1.6-1.1,2.4-1.7C98.9,55.1,88.4,43.1,76.5,42.9z"/>
			<g>
				<path fill="#78796C" d="M86,48.2c6,4.2,10,11.9,9.3,21.9c-0.7,0.7-1.5,1.3-2.2,1.8c0,0.2,0,0.5,0,0.6c0,0-10.1,4.2-16.5,2.9
					c-1.9-0.4-4.6-2.2-6.6-3.8c1.9,1.9,4.7,4.4,6.8,5c6.2,1.9,16.7-1.4,16.7-1.4c0-0.2,0-0.4,0-0.6c0.8-0.5,1.6-1,2.4-1.6
					C98.1,61.4,93.3,52.4,86,48.2z"/>
			</g>
			<path fill="#78796C" d="M75.3,49.2c7,2.1,12.8,8.6,14.5,17.7c1.1-0.7,2.1-1.5,3-2.5C90.6,56.1,83.5,50.5,75.3,49.2z"/>
			<path fill="#78796C" d="M70.9,52.8c6.9,2.5,12.4,9.2,13.5,18.4c1.1-0.6,2.2-1.4,3.2-2.3C85.9,60.4,79.1,54.4,70.9,52.8z"/>
			<path fill="#78796C" d="M93.4,56.7c-1.9,2.7-4.4,4.8-7.2,6.2c2.2,2.9,3.6,6.2,4.2,9.7c1.8-0.5,3.6-1.3,5.2-2.4
				c0.2-1.1,0.3-2.3,0.3-3.4C95.9,63.2,95,59.8,93.4,56.7z"/>
			<path fill="#78796C" d="M87.8,73.2c0.1-3.6-0.7-7-2.2-10c-2.6,1.2-5.5,1.8-8.5,1.6c-2.9-0.2-5.6-1.1-8-2.6
				c2.9,6.2,8.6,10.6,15.4,11C85.7,73.4,86.7,73.4,87.8,73.2z"/>
			<path fill="#97998A" d="M81.8,73.2c0.5,0.1,0.9,0.2,1.4,0.3c0.1-2.7-0.2-5.3-1-8C82.5,68.1,82.4,70.7,81.8,73.2z"/>
		</g>
	</g>
</g>
</svg>
