<?xml version="1.0" encoding="utf-8"?>
<!-- Generator: Adobe Illustrator 16.0.0, SVG Export Plug-In . SVG Version: 6.00 Build 0)  -->
<!DOCTYPE svg PUBLIC "-//W3C//DTD SVG 1.1//EN" "http://www.w3.org/Graphics/SVG/1.1/DTD/svg11.dtd">
<svg version="1.1" id="Capa_1" xmlns="http://www.w3.org/2000/svg" xmlns:xlink="http://www.w3.org/1999/xlink" x="0px" y="0px" viewBox="29.167 29.167 91.667 91.667" enable-background="new 29.167 29.167 91.667 91.667"
	 xml:space="preserve">
<g>
	<g>
		<g>
			<circle id="SVGID_1_" fill="#FFFFFF" cx="75" cy="75" r="45.912"/>
		</g>
		<g>
			<g>
				<defs>
					<circle id="SVGID_2_" cx="75" cy="75" r="45.912"/>
				</defs>
				<clipPath id="SVGID_3_">
					<use xlink:href="#SVGID_2_"  overflow="visible"/>
				</clipPath>
				<g clip-path="url(#SVGID_3_)">
					<path fill="#CEB39F" d="M46.442,120.785c0.117,0.077,0.249,0.144,0.396,0.201h5.89c0.675-0.107,1.116-0.201,1.116-0.201
						v-11.816l-6.761-0.326C47.082,108.643,42.735,118.83,46.442,120.785z"/>
					<path fill="#E0D0C1" d="M100.041,120.748c-0.123,0.078-0.264,0.144-0.418,0.201H93.4c-0.713-0.108-1.18-0.201-1.18-0.201
						v-11.817l7.144-0.325C99.364,108.605,104.266,119.279,100.041,120.748z"/>
					<path fill="#E0D0C1" d="M92.733,107.625v-4.691c-0.003-2.146-2.093-2.396-3.601-2.947l-6.25-1.703l-2.213-0.944h0.006
						l-0.158-0.067c-0.94-0.344-1.445-1.197-1.576-2.399v-4.08l4.154-2.847c3.332-2.902,3.098-3.588,4.863-6.42l0.207-1.275
						c1.91,0,2.674-2.254,2.85-4.332c0,0,0.549-4.153-0.552-3.627c-0.575-0.045,1.082-6.78,0.096-9.841
						c-1.401-4.344-8.8-11.274-16.753-11.274c-0.161,0-0.316,0.008-0.473,0.01c-0.157-0.002-0.312-0.01-0.473-0.01
						c-7.954,0-13.995,6.843-15.67,11.073c-1.678,4.232-0.517,10.361-0.517,10.361c-1.099-0.526-1.021,3.308-1.021,3.308
						c0.176,2.078,0.94,4.331,2.851,4.331l0.435,1.161c2.235,3.518,2.838,4.908,5.636,7.391l3.153,1.991v4.08
						c-0.11,1.013-0.489,1.772-1.167,2.193c-0.057,0.028-0.116,0.059-0.178,0.08l-2.669,1.138l-6.264,1.703
						c-1.511,0.552-3.606,0.801-3.606,2.947v4.691H92.733L92.733,107.625z"/>
					<path fill="#B58DA9" d="M92.887,109.939l6.604-1.354l-0.949-4.023c-0.432-1.778-3-3.639-5.408-4.315l-2.268-0.954
						c-0.029-0.016-0.061-0.03-0.094-0.046c-0.311-0.149-0.756-0.334-1.307-0.547c-1.148-0.448-2.762-1.033-4.555-1.751
						c-1.706,1.064,2.164,11.074-16.27,8.596c-6.398-0.796-5.417-7.531-7.122-8.596c-1.793,0.718-3.395,1.303-4.543,1.751
						c-0.552,0.213-0.996,0.397-1.307,0.547c-0.035,0.016-0.064,0.03-0.095,0.046l-2.443,1.131
						c-0.385,0.196-0.722,0.379-1.019,0.552c-1.964,0.87-3.759,2.386-4.115,3.845l-0.949,4.024l7.032,1.442
						c0,0-2.465,5.383-1.921,10.662h42.79C95.646,115.435,92.887,109.939,92.887,109.939z"/>
					<path fill="#CEB39F" d="M78.941,90.791c0.032-0.022-4.116,8.129-12.37,6.273c0.594-0.449,0.93-0.79,1.039-1.998l0.116-4.275
						C67.727,90.791,73.474,93.826,78.941,90.791z"/>
					<g>
						<g>
							<path fill="#A46D4D" d="M74.096,87.035c-1.667,0-3.223-0.288-4.273-0.791c-0.428-0.203-0.539-0.613-0.248-0.914
								c0.29-0.3,0.874-0.377,1.301-0.173c0.737,0.352,1.938,0.562,3.22,0.562c1.278,0,2.481-0.21,3.218-0.562
								c0.428-0.205,1.01-0.128,1.301,0.173c0.292,0.301,0.182,0.711-0.248,0.914C77.318,86.747,75.76,87.035,74.096,87.035z"/>
						</g>
					</g>
					<path fill="#B7A292" d="M73.608,79.963c-1.376,0-2.205-1.027-2.205-0.531c0,0.497,0.397,1.441,2.205,1.441
						c1.804,0,2.202-0.943,2.202-1.441C75.811,78.936,74.982,79.963,73.608,79.963z"/>
					<path fill="#623F33" d="M73.607,48.681"/>
					<path fill="#D6BFAB" d="M77.195,61.735c0,0-9.638,5.106-15.34,6.029l0.032-12.586c-2.405,2.233-4.116,4.986-4.86,7.092
						c-1.496,4.232-0.463,10.34-0.463,10.34c-0.98-0.526-0.908,3.328-0.908,3.328c0.156,2.078,1.019,4.472,2.722,4.472l0.561,1
						c1.539,3.813,1.858,4.549,4.005,6.344l4.784,3.038l1.467,0.6c-4.977-2.562-6.625-6.777-6.625-6.777l-0.52-2.776v-9.547
						c1.629-0.762,4.563-3.096,4.563-3.096c6.013-4.188,11.767-4.648,11.767-4.648c1.928,0.333,3.379,1.544,4.469,3.113
						C81.717,64.888,80.156,62.246,77.195,61.735z"/>
					<path fill="#623F33" d="M82.473,73.425c-0.178,0.032-0.375,0.056-0.6,0.003c-0.223-0.053-0.393-0.168-0.393-0.168v0.001
						c-0.01-0.008-0.023-0.013-0.035-0.021c-0.014-0.011-0.031-0.019-0.048-0.029c-0.036-0.026-0.074-0.049-0.114-0.07
						c-0.037-0.02-0.072-0.039-0.109-0.055c-0.035-0.014-0.075-0.026-0.113-0.037c-0.036-0.01-0.07-0.027-0.107-0.035
						c-0.004,0-0.007-0.002-0.01-0.002c-0.018-0.005-0.033,0-0.053-0.003c-0.054-0.007-0.106-0.017-0.16-0.017
						c-0.006,0-0.011,0.001-0.014,0.001c-0.006,0-0.01-0.001-0.015-0.001c-0.64,0-1.159,0.479-1.159,1.069
						c0,0.02,0.005,0.038,0.006,0.057c-0.002,0.021-0.006,0.041-0.006,0.062v1.187c0,0.653,0.533,1.186,1.188,1.186
						c0.652,0,1.187-0.533,1.186-1.186V74.18c0-0.033-0.007-0.064-0.01-0.096c0.135,0.19,0.232,0.38,0.289,0.511
						c-0.025-0.125-0.236-0.601-0.331-0.833c0.04,0.017,0.173,0.004,0.42-0.105c0.306-0.135,0.444-0.289,0.444-0.289
						S82.651,73.394,82.473,73.425z"/>
					<path fill="#623F33" d="M64.83,73.425c0.179,0.032,0.375,0.056,0.6,0.003c0.223-0.053,0.394-0.168,0.394-0.168l-0.001,0.001
						c0.01-0.008,0.024-0.013,0.036-0.021c0.015-0.011,0.033-0.019,0.048-0.029c0.037-0.026,0.074-0.049,0.115-0.07
						c0.036-0.02,0.071-0.039,0.108-0.055c0.037-0.014,0.076-0.026,0.114-0.037c0.036-0.01,0.07-0.027,0.108-0.035
						c0.002,0,0.006-0.002,0.009-0.002c0.018-0.005,0.035,0,0.052-0.003c0.053-0.007,0.107-0.017,0.16-0.017
						c0.005,0,0.01,0.001,0.014,0.001c0.005,0,0.01-0.001,0.015-0.001c0.64,0,1.16,0.479,1.16,1.069c0,0.02-0.005,0.038-0.007,0.057
						c0.001,0.021,0.007,0.041,0.007,0.062v1.187c0,0.653-0.534,1.186-1.188,1.186c-0.652,0-1.187-0.533-1.186-1.186V74.18
						c0-0.033,0.007-0.064,0.009-0.096c-0.134,0.19-0.232,0.38-0.289,0.511c0.026-0.125,0.236-0.601,0.332-0.833
						c-0.041,0.017-0.172,0.004-0.421-0.105c-0.305-0.135-0.444-0.289-0.444-0.289S64.651,73.394,64.83,73.425z"/>
					<path fill="#FFFFFF" d="M87.786,79.301c0.433,0,0.783,0.352,0.783,0.784s-0.351,0.783-0.783,0.783s-0.784-0.351-0.784-0.783
						S87.354,79.301,87.786,79.301z"/>
					<path fill="#FFFFFF" d="M58.759,79.301c0.433,0,0.784,0.352,0.784,0.783c0,0.434-0.352,0.783-0.784,0.783
						c-0.432,0-0.783-0.35-0.783-0.783C57.976,79.652,58.327,79.301,58.759,79.301z"/>
					<path fill="#D3D3D3" d="M88.055,80.75c-0.439,0-0.795-0.355-0.795-0.794c0-0.258,0.131-0.478,0.322-0.622
						c-0.332,0.096-0.58,0.389-0.58,0.751c0,0.438,0.355,0.794,0.795,0.794c0.181,0,0.339-0.07,0.472-0.172
						C88.199,80.727,88.131,80.75,88.055,80.75z"/>
					<path fill="#D3D3D3" d="M59.028,80.75c-0.438,0-0.795-0.355-0.795-0.794c0-0.258,0.132-0.478,0.323-0.622
						c-0.333,0.096-0.58,0.389-0.58,0.751c0,0.438,0.355,0.794,0.794,0.794c0.182,0,0.34-0.07,0.473-0.172
						C59.172,80.727,59.104,80.75,59.028,80.75z"/>
					<path fill="#E4EEF2" d="M68.888,66.882c-2.533-0.169-3.449-0.277-3.449,0.463c0,5.459-3.432-9.833-1.716-16.433
						c0.572-2.2,2.042-4.484,3.432-4.823c4.085-1.1,8.498-1.1,12.503,0c1.307,0.339,2.859,2.624,3.432,4.823
						c1.635,6.6,3.187,12.778,4.984,17.94c0.654,1.692-0.898,2.961-3.432,3.13c-7.518,0.338-10.634-2.176-18.071-2.514"/>
					<path fill="#CEB39F" d="M69.97,71.725c5.394,3.268,12.095,3.677,18.633,0.246c1.634-9.888-0.972-17.258-6.619-20.266
						c-5.675-3.023-10.505-3.034-19.934,2.985C55.85,58.647,64.577,68.456,69.97,71.725"/>
					<path fill="#E1EAEA" d="M72.548,72.186c6.128,2.708,12.993,2.454,19.122-1.692c0.082-10.239-3.759-17.685-10.133-19.885
						c-5.884-3.3-13.483-2.37-20.593,4.739C62.17,62.793,66.419,69.393,72.548,72.186"/>
					<path fill="#E1EAEA" d="M57.594,60.473c-2.206,4.316-3.269,8.885-2.37,12.778c4.576-0.677,10.125-3.188,12.086-7.587
						c2.451-4.231,2.411-10.722,0.45-14.953C64.164,51.98,59.801,56.159,57.594,60.473"/>
					<path fill="#D7DFE2" d="M89.955,69.274c0-5.67-1.227-10.408-3.596-13.708c-1.472-1.608-3.188-2.793-5.23-3.47
						c-4.494-2.539-10.052-2.539-15.608,0.762l-0.082,0.084c0.49,6.177,0.898,10.492,5.475,17.262
						c0.408,0.169,0.735,0.422,1.144,0.592C77.86,73.336,84.234,73.082,89.955,69.274"/>
					<g>
						<path fill="#0095A5" d="M66.955,95.992c0.799,0,1.448,0.647,1.448,1.448c0,0.8-0.649,1.448-1.448,1.448
							c-0.801,0-1.449-0.648-1.449-1.448C65.505,96.64,66.154,95.992,66.955,95.992"/>
						<path fill="#00B1C0" d="M67.417,97.209c0,0.348-0.289,0.637-0.637,0.637c-0.348,0-0.638-0.289-0.638-0.637
							s0.29-0.638,0.638-0.638C67.128,96.571,67.417,96.861,67.417,97.209"/>
						<path fill="#0095A5" d="M67.533,98.136c0.8,0,1.448,0.648,1.448,1.448s-0.648,1.449-1.448,1.449
							c-0.799,0-1.448-0.649-1.448-1.449S66.734,98.136,67.533,98.136"/>
						<path fill="#00B1C0" d="M67.359,98.773c0.353,0,0.638,0.285,0.638,0.637s-0.285,0.637-0.638,0.637
							c-0.352,0-0.637-0.285-0.637-0.637S67.007,98.773,67.359,98.773"/>
						<path fill="#0095A5" d="M69.155,100.222c0.8,0,1.449,0.648,1.449,1.448s-0.649,1.448-1.449,1.448
							c-0.8,0-1.448-0.648-1.448-1.448S68.355,100.222,69.155,100.222"/>
						<path fill="#00B1C0" d="M68.981,100.801c0.352,0,0.638,0.285,0.638,0.637s-0.286,0.639-0.638,0.639
							c-0.352,0-0.636-0.287-0.636-0.639S68.63,100.801,68.981,100.801"/>
						<path fill="#0095A5" d="M72.806,102.713c0,0.811-0.638,1.447-1.448,1.447c-0.812,0-1.449-0.637-1.449-1.447
							c0-0.812,0.637-1.448,1.449-1.448C72.11,101.265,72.806,101.901,72.806,102.713"/>
						<path fill="#00B1C0" d="M71.763,102.539c0,0.348-0.29,0.637-0.638,0.637c-0.347,0-0.637-0.289-0.637-0.637
							s0.29-0.638,0.637-0.638C71.473,101.901,71.763,102.191,71.763,102.539"/>
						<path fill="#0095A5" d="M75.239,102.945c0,0.811-0.638,1.447-1.448,1.447c-0.811,0-1.449-0.637-1.449-1.447
							c0-0.813,0.638-1.449,1.449-1.449C74.602,101.496,75.239,102.133,75.239,102.945"/>
						<path fill="#00B1C0" d="M73.617,102.133c0.352,0,0.637,0.286,0.637,0.639c0,0.352-0.285,0.637-0.637,0.637
							c-0.353,0-0.639-0.285-0.639-0.637C72.979,102.418,73.265,102.133,73.617,102.133"/>
						<path fill="#0095A5" d="M77.789,102.887c0,0.811-0.639,1.449-1.449,1.449s-1.448-0.639-1.448-1.449s0.638-1.449,1.448-1.449
							C77.15,101.381,77.789,102.076,77.789,102.887"/>
						<path fill="#00B1C0" d="M76.166,102.076c0.352,0,0.638,0.285,0.638,0.637s-0.286,0.637-0.638,0.637s-0.637-0.285-0.637-0.637
							C75.529,102.36,75.814,102.076,76.166,102.076"/>
						<path fill="#0095A5" d="M79.933,101.555c0,0.811-0.638,1.447-1.449,1.447c-0.81,0-1.448-0.637-1.448-1.447
							c0-0.813,0.639-1.449,1.448-1.449C79.295,100.105,79.933,100.742,79.933,101.555"/>
						<path fill="#00B1C0" d="M78.252,100.742c0.352,0,0.637,0.286,0.637,0.639c0,0.352-0.285,0.637-0.637,0.637
							s-0.637-0.285-0.637-0.637C77.615,101.028,77.9,100.742,78.252,100.742"/>
						<path fill="#0095A5" d="M81.148,99.294c0,0.753-0.578,1.333-1.332,1.333c-0.753,0-1.333-0.58-1.333-1.333
							s0.58-1.332,1.333-1.332C80.57,97.904,81.148,98.541,81.148,99.294"/>
						<path fill="#00B1C0" d="M79.643,98.541c0.32,0,0.58,0.26,0.58,0.579c0,0.321-0.26,0.579-0.58,0.579s-0.579-0.258-0.579-0.579
							C79.063,98.801,79.322,98.541,79.643,98.541"/>
						<path fill="#0095A5" d="M80.164,95.875c0.704,0,1.275,0.572,1.275,1.275c0,0.705-0.571,1.274-1.275,1.274
							c-0.703,0-1.275-0.569-1.275-1.274C78.889,96.447,79.461,95.875,80.164,95.875"/>
						<path fill="#00B1C0" d="M80.57,96.977c0,0.291-0.232,0.58-0.58,0.58c-0.29,0-0.579-0.231-0.579-0.58
							c0-0.289,0.231-0.578,0.579-0.578S80.57,96.688,80.57,96.977"/>
					</g>
				</g>
			</g>
		</g>
	</g>
</g>
</svg>
