<?xml version="1.0" encoding="utf-8"?>
<!-- Generator: Adobe Illustrator 16.0.0, SVG Export Plug-In . SVG Version: 6.00 Build 0)  -->
<!DOCTYPE svg PUBLIC "-//W3C//DTD SVG 1.1//EN" "http://www.w3.org/Graphics/SVG/1.1/DTD/svg11.dtd">
<svg version="1.1" id="Capa_1" xmlns="http://www.w3.org/2000/svg" xmlns:xlink="http://www.w3.org/1999/xlink" x="0px" y="0px" viewBox="29.167 29.167 91.667 91.667" enable-background="new 29.167 29.167 91.667 91.667"
	 xml:space="preserve">
<g>
	<g>
		<g>
			<circle id="SVGID_1_" fill="#FFFFFF" cx="75" cy="75" r="45.912"/>
		</g>
		<g>
			<g>
				<defs>
					<circle id="SVGID_2_" cx="75" cy="75" r="45.912"/>
				</defs>
				<clipPath id="SVGID_3_">
					<use xlink:href="#SVGID_2_"  overflow="visible"/>
				</clipPath>
				<g clip-path="url(#SVGID_3_)">
					<path fill="#E0D0C1" d="M99.448,116.072c-0.046-0.439-0.415-0.755-0.825-0.707l-0.064,0.008l-1.113-9.559
						c-0.244-2.079-1.92-2.904-3.773-3.566l-6.09-1.564c-0.85-0.303-1.539-1.68-2.194-1.08l-1.823-0.653
						c-1.036-0.37-1.734-1.409-1.308-2.582l0.058-3.716l2.451-0.644c4.244-1.711,6.41-5.843,6.988-8.958l0.221-2.402
						c2.102,0,2.96-1.647,2.96-3.9c0-0.682,0.397-1.325,0.413-2.066c0.277-0.671,0.432-1.414,0.432-2.194
						c0-0.552,0.016-2.165-1.617-3.597c0.273-1.227,0.273-1.227,0.273-2.741c0-0.551,0.551-0.772,0.409-1.272
						c-0.419-1.247,0.271-1.757,0.271-3.272c0-2.617-0.454-3.542-0.819-5.32c0.054-0.203-1.203-1.439-2.721-2.739l-30.504-1.028
						c-3.475,6.382-4.699,18.778-4.699,18.778c-3.232-4.791-2.855,0.442-2.855,0.993c0,0.781,0.311,1.322,0.001,2.289
						c0.369,0.971,0.105,0.89,0.192,1.889c0.193,2.234,0.833,3.868,3.031,4.104L57,81.986c1.133,3.763,2.282,7.938,5.633,8.842
						l3.736,1.48l-0.118,3.463c-0.144,1.293-0.34,2.811-1.375,3.18l-1.824,0.653c-0.657-0.601-1,0.687-1.849,0.989l-6.072,1.313
						c-1.072,1.468-3.895,1.83-4.138,3.908l-1.113,9.56l-0.064-0.008c-0.41-0.05-0.779,0.269-0.824,0.707l-0.117,1.111
						c-0.044,0.44,0.251,0.835,0.662,0.886l1.855,0.221l0,0c0,1.502,1.714,1.893,3.116,1.893h5.746h27.899h5.782
						c1.401,0,3.109-5.058,3.109-1.893l0,0l1.855-0.223c0.41-0.048,0.705-0.443,0.659-0.884L99.448,116.072z"/>
					<path fill="#E0D0C1" d="M89.986,59.686c0,7.942-6.975,14.381-15.579,14.381c-8.604,0-15.579-6.439-15.579-14.381
						c0-7.942,6.975-14.381,15.579-14.381C83.012,45.304,89.986,51.743,89.986,59.686z"/>
					<path fill="#D6BFAB" d="M55.879,70.675c-3.651-4.818-2.293,4.424-2.293,4.424c0.187,2.219,0.293,4.998,3.156,5.47l0.066,0.731
						c1.697,6.188,3.026,8.207,5.069,9.156l3.74,1.59l4.786,1.882c-5.99-2.587-6.882-6.942-6.882-6.942l-0.767-4.401L62.618,70.36
						c0.921-22.793,14.628-24.817,14.628-24.817S57.842,40.768,55.879,70.675z"/>
					<path fill="#CEB39F" d="M78.813,93.486c-1.539,0.689-3.188,1.045-4.856,1.045c-1.668,0-3.318-0.354-4.857-1.045l-2.844-1.211
						l-0.002,4.35c-0.142,1.301-0.501,1.873-1.264,2.355c10.587,1.997,17.321-6.322,17.325-6.328L78.813,93.486z"/>
					<g>
						<g>
							<path fill="#A46D4D" d="M74.407,86.737c-1.611,0-3.118-0.278-4.135-0.765c-0.414-0.197-0.521-0.594-0.239-0.884
								c0.282-0.291,0.845-0.366,1.259-0.168c0.713,0.341,1.877,0.543,3.115,0.543c1.237,0,2.402-0.203,3.116-0.543
								c0.413-0.198,0.977-0.123,1.258,0.168c0.282,0.29,0.176,0.687-0.239,0.884C77.525,86.459,76.018,86.737,74.407,86.737z"/>
						</g>
					</g>
					<g>
						<path fill="#623F33" d="M66.916,73.208L66.916,73.208c-0.735,0-1.336-0.602-1.336-1.336v-1.337
							c0-0.734,0.601-1.336,1.336-1.336l0,0c0.736,0,1.337,0.602,1.337,1.336v1.337C68.253,72.607,67.652,73.208,66.916,73.208z"/>
					</g>
					<g>
						<path fill="#623F33" d="M81.981,73.208L81.981,73.208c-0.735,0-1.337-0.602-1.337-1.336v-1.337
							c0-0.734,0.602-1.336,1.337-1.336l0,0c0.734,0,1.335,0.602,1.335,1.336v1.337C83.317,72.607,82.716,73.208,81.981,73.208z"/>
					</g>
					<path fill="#375063" d="M105.196,105.17c-4.532-4.709-7.272-4.814-18.883-8.247c-0.73-0.214-1.481-0.433-2.239-0.657h-2.516
						l-1.087,0.826l-6.23,4.727l-0.021,0.018l-0.021-0.018l-6.231-4.727l-1.087-0.826h-2.515c-0.758,0.225-1.509,0.443-2.241,0.657
						c-11.61,3.433-14.35,3.538-18.883,8.247c0,0-5.526,7.359-4.978,15.742H74.22h35.955
						C110.723,112.529,105.196,105.17,105.196,105.17z"/>
					<path fill="#B7A292" d="M74.449,77.452c-1.469,0-2.354-1.097-2.354-0.565c0,0.529,0.425,1.539,2.354,1.539
						c1.928,0,2.353-1.009,2.353-1.539C76.802,76.355,75.916,77.452,74.449,77.452z"/>
					<path fill="#314A56" d="M74.448,101.661l-0.207,0.157l-0.021,0.018l-0.021-0.018l-6.231-4.726l-1.087-0.827h-2.515
						c-0.758,0.225-1.509,0.443-2.241,0.657c-11.61,3.434-14.35,3.539-18.883,8.247c0,0-5.526,7.359-4.978,15.742H74.22h0.229
						V101.661L74.448,101.661z"/>
					<polygon fill="#45697F" points="74.22,101.672 70.547,106.663 64.387,96.662 64.32,96.555 64.227,96.395 64.266,96.335 
						66.196,93.652 67.006,94.46 68.177,95.624 69.07,96.52 74.192,101.642 					"/>
					<polygon fill="#45697F" points="84.494,96.359 84.482,96.384 84.477,96.391 84.337,96.609 84.314,96.646 77.906,106.562 
						77.844,106.663 73.978,101.654 79.375,96.509 80.326,95.604 81.569,94.42 81.574,94.473 82.422,93.609 					"/>
					<path fill="#CEB39F" d="M73.727,87.241c3.684,0,7.93,2.026,7.93,4.126c0,2.101-4.246,3.48-7.93,3.48
						c-3.685,0-6.671-1.703-6.671-3.805C67.056,88.943,70.042,87.241,73.727,87.241"/>
					<path fill="#E0D0C1" d="M73.799,86.706c3.8,0,8.182,1.924,8.182,3.919c0,1.994-4.382,3.304-8.182,3.304
						c-3.801,0-6.883-1.617-6.883-3.612C66.916,88.322,69.998,86.706,73.799,86.706"/>
					<rect x="81.533" y="114.422" fill="#7F97A3" width="10.871" height="1.904"/>
					<path fill="#D1D3D3" d="M56.762,51.067h0.833c1.85,0,3.127,0.262,3.127,2.818c0,0-2.85,7.516-2.85,9.965l0.093,8.028
						l-0.935,0.696l-0.657-1.278c-1.851,0-3.034-2.333-3.034-4.89V55.754C53.339,53.197,55.448,52.206,56.762,51.067"/>
					<path fill="#EEEEEE" d="M91.763,51.75l-0.849,0.029c-1.885,0.063-3.177,0.364-3.093,2.866c0,0,3.151,7.258,3.233,9.655
						l0.17,7.862l0.605,0.662l0.594-1.471c1.886-0.063,3.418-2.204,3.334-4.706l-0.354-10.427
						C95.32,53.719,93.14,52.821,91.763,51.75"/>
				</g>
			</g>
		</g>
	</g>
</g>
</svg>
