<?xml version="1.0" encoding="utf-8"?>
<!-- Generator: Adobe Illustrator 16.0.0, SVG Export Plug-In . SVG Version: 6.00 Build 0)  -->
<!DOCTYPE svg PUBLIC "-//W3C//DTD SVG 1.1//EN" "http://www.w3.org/Graphics/SVG/1.1/DTD/svg11.dtd">
<svg version="1.1" id="Capa_1" xmlns="http://www.w3.org/2000/svg" xmlns:xlink="http://www.w3.org/1999/xlink" x="0px" y="0px"
	 viewBox="0 0 595.279 841.89" enable-background="new 0 0 595.279 841.89"
	 xml:space="preserve">
<g>
	<g>
		<g>
			<circle id="SVGID_1_" fill="#FFFFFF" cx="297.64" cy="420.946" r="257.689"/>
		</g>
		<g>
			<defs>
				<circle id="SVGID_2_" cx="297.64" cy="420.946" r="257.689"/>
			</defs>
			<clipPath id="SVGID_3_">
				<use xlink:href="#SVGID_2_"  overflow="visible"/>
			</clipPath>
			<g clip-path="url(#SVGID_3_)">
				<path fill="#375063" d="M398.843,572.4"/>
				<path fill="#D8C5B6" d="M236.001,563.658c1.585-0.482,3.245-0.989,4.869-1.48l-0.029-0.028l-0.057-0.115l9.89-12.812
					l1.772,1.771l-0.273-19.337c-0.671-0.381-1.094-0.638-1.171-0.697c-0.126-0.097-0.214-0.229-0.332-0.335l-25.818-11.133
					c-14.333-6.053-20.738-21.1-23.667-35.972v-6.486c-10.623,0-14.965-7.87-14.965-18.627c0-3.258-2.005-6.327-2.095-9.863
					c-1.39-3.21-2.178-6.752-2.178-10.477c0-2.627-0.074-10.296,8.109-17.115c-1.232-5.384-2.344-11.162-3.165-17.205
					c-0.273-0.563-0.412-1.162-0.232-1.878c-0.512-4.057-0.883-8.215-1.074-12.437c-0.165-1.004-0.287-2.073-0.287-3.318
					c0-1.826,0.056-3.463,0.143-4.983c0.121-8.607,1.077-17.318,3.266-25.755c-7.319-11.704-10.539-26.206-8.297-43.017
					c0.686-5.159,6.254-4.379,11.747-4.055c17.136,1.011,21.326-4.44,56.323-23.903c14.324-7.964,28.773-11.297,42.485-11.368
					v405.172h-71.007h-31.171c-2.013,0-3.946,0.063-5.691-0.006h-51.838v-12.837v-16.789v-32.638
					C131.258,596.363,182.714,580.054,236.001,563.658z"/>
				<path fill="#E0D0C1" d="M402.504,584.669c23.538,9.765,39.868,19.97,39.868,31.262v62.253h-40.693
					c-0.232,0.068-0.431,0.034-0.431,0.034H289.636V273.036h0.827c0.235,0,0.499,0,0.727,0.036c0.599,0,1.157,0,1.719,0.033
					c0.033,0,0.033,0,0.033,0c34.88,0.683,66.255,12.927,88.635,35.31c5.424,5.376,10.313,11.397,14.612,17.995
					c12.831,19.664,20.266,44.461,20.266,73.887c-1.387,30.989-14.512,89.226-14.512,89.226
					c-1.091,10.513-0.231,19.936,6.283,21.673l7.701,2.036l-70.548,9.867l-23.112,3.233v11.462
					c0.529,4.562,2.116,8.202,4.861,10.579c0.43,0.441,0.926,0.819,1.422,1.09l0.76,0.474l0,0c0.661,0.379,1.355,0.682,2.11,0.956
					l0.899,0.371l6.574,2.622L402.504,584.669z"/>
				<path fill="#D6BFAB" d="M452.162,379.047"/>
			</g>
		</g>
	</g>
</g>
</svg>
