<?xml version="1.0" encoding="utf-8"?>
<!-- Generator: Adobe Illustrator 16.0.0, SVG Export Plug-In . SVG Version: 6.00 Build 0)  -->
<!DOCTYPE svg PUBLIC "-//W3C//DTD SVG 1.1//EN" "http://www.w3.org/Graphics/SVG/1.1/DTD/svg11.dtd">
<svg version="1.1" id="Capa_1" xmlns="http://www.w3.org/2000/svg" xmlns:xlink="http://www.w3.org/1999/xlink" x="0px" y="0px" viewBox="29.167 29.167 91.833 91.833" enable-background="new 29.167 29.167 91.833 91.833"
	 xml:space="preserve">
<g>
	<g>
		<g>
			<circle id="SVGID_1_" fill="#FFFFFF" cx="75" cy="75" r="45.912"/>
		</g>
		<g>
			<g>
				<defs>
					<circle id="SVGID_2_" cx="75" cy="75" r="45.912"/>
				</defs>
				<clipPath id="SVGID_3_">
					<use xlink:href="#SVGID_2_"  overflow="visible"/>
				</clipPath>
				<g clip-path="url(#SVGID_3_)">
					<path fill="#375063" d="M93.031,101.984"/>
					<path fill="#D8C5B6" d="M64.018,100.428c0.282-0.086,0.578-0.177,0.867-0.264l-0.005-0.006l-0.01-0.02l1.762-2.283l0.315,0.315
						l-0.048-3.445c-0.12-0.067-0.195-0.114-0.209-0.124c-0.022-0.018-0.038-0.041-0.059-0.06l-4.6-1.983
						c-2.554-1.079-3.695-3.76-4.217-6.41v-1.155c-1.893,0-2.666-1.401-2.666-3.318c0-0.581-0.357-1.128-0.374-1.757
						c-0.248-0.572-0.388-1.203-0.388-1.867c0-0.469-0.013-1.834,1.445-3.049c-0.22-0.959-0.418-1.989-0.564-3.065
						c-0.049-0.101-0.074-0.207-0.042-0.335c-0.091-0.723-0.157-1.463-0.191-2.216c-0.029-0.179-0.051-0.369-0.051-0.591
						c0-0.325,0.01-0.617,0.026-0.888c0.021-1.533,0.191-3.085,0.582-4.589c-1.304-2.085-1.877-4.669-1.478-7.664
						c0.122-0.919,1.114-0.78,2.093-0.723c3.053,0.18,3.8-0.791,10.035-4.259c2.552-1.419,5.126-2.013,7.57-2.025v72.189H61.16
						h-5.554c-0.358,0-0.703,0.012-1.014-0.001h-9.236v-2.287v-2.991v-5.814C45.355,106.254,54.523,103.349,64.018,100.428z"/>
					<path fill="#E0D0C1" d="M93.684,104.171c4.193,1.739,7.104,3.558,7.104,5.569v11.092h-7.25
						c-0.041,0.013-0.077,0.006-0.077,0.006H73.574V48.647h0.147c0.042,0,0.089,0,0.13,0.006c0.106,0,0.206,0,0.306,0.006
						c0.006,0,0.006,0,0.006,0c6.214,0.122,11.805,2.303,15.792,6.292c0.967,0.958,1.838,2.03,2.604,3.206
						c2.286,3.503,3.611,7.921,3.611,13.165c-0.248,5.521-2.586,15.897-2.586,15.897c-0.194,1.873-0.041,3.552,1.119,3.861
						l1.372,0.363l-12.569,1.758l-4.118,0.576v2.041c0.095,0.813,0.377,1.462,0.866,1.886c0.076,0.078,0.165,0.146,0.254,0.194
						l0.135,0.084l0,0c0.118,0.068,0.242,0.121,0.376,0.17l0.16,0.066l1.171,0.467L93.684,104.171z"/>
					<path fill="#D6BFAB" d="M102.531,67.535"/>
				</g>
			</g>
		</g>
	</g>
</g>
</svg>
