<?xml version="1.0" encoding="utf-8"?>
<!-- Generator: Adobe Illustrator 16.0.0, SVG Export Plug-In . SVG Version: 6.00 Build 0)  -->
<!DOCTYPE svg PUBLIC "-//W3C//DTD SVG 1.1//EN" "http://www.w3.org/Graphics/SVG/1.1/DTD/svg11.dtd">
<svg version="1.1" id="Capa_1" xmlns="http://www.w3.org/2000/svg" xmlns:xlink="http://www.w3.org/1999/xlink" x="0px" y="0px" viewBox="29 29.167 91.834 91.707" enable-background="new 29 29.167 91.834 91.707"
	 xml:space="preserve">
<g>
	<g>
		<g>
			<circle id="SVGID_1_" fill="#FFFFFF" cx="75" cy="75" r="45.912"/>
		</g>
		<g>
			<g>
				<defs>
					<circle id="SVGID_2_" cx="75" cy="75" r="45.912"/>
				</defs>
				<clipPath id="SVGID_3_">
					<use xlink:href="#SVGID_2_"  overflow="visible"/>
				</clipPath>
				<g clip-path="url(#SVGID_3_)">
					<path fill="#E8D9CA" d="M95.417,66.953c0,12.197-9.358,22.084-20.902,22.084c-11.543,0-20.901-9.888-20.901-22.084
						c0-12.197,9.359-22.085,20.901-22.085C86.059,44.868,95.417,54.755,95.417,66.953z"/>
					<path fill="#E8D9CA" d="M111.482,117.762c0-13.525-16.287-24.49-36.379-24.49c-19.841,0-35.961,10.694-36.36,23.987h-0.117
						c0,13.526,16.287,24.491,36.379,24.491c19.842,0,35.961-10.695,36.359-23.988H111.482z"/>
					<path fill="#D6BFAB" d="M72.7,74.015c0-1.603,0.194-2.88,0.583-3.831c0.389-0.95,1.101-1.886,2.136-2.808
						s1.725-1.672,2.067-2.251c0.344-0.579,0.516-1.189,0.516-1.831c0-1.937-0.893-2.905-2.677-2.905
						c-0.847,0-1.524,0.261-2.033,0.783s-0.775,1.241-0.798,2.159h-4.977c0.022-2.187,0.729-3.899,2.119-5.136
						c1.39-1.236,3.287-1.855,5.689-1.855c2.425,0,4.308,0.587,5.646,1.761c1.339,1.173,2.008,2.831,2.008,4.973
						c0,0.973-0.217,1.892-0.652,2.757c-0.434,0.864-1.195,1.824-2.281,2.877l-1.391,1.322c-0.869,0.836-1.367,1.815-1.493,2.938
						l-0.068,1.047H72.7L72.7,74.015z M72.202,79.274c0-0.764,0.26-1.394,0.78-1.89s1.187-0.744,2-0.744
						c0.812,0,1.479,0.248,1.999,0.744c0.521,0.496,0.781,1.126,0.781,1.89c0,0.753-0.254,1.374-0.764,1.864
						c-0.509,0.49-1.182,0.736-2.016,0.736c-0.835,0-1.507-0.246-2.016-0.736C72.457,80.648,72.202,80.027,72.202,79.274z"/>
				</g>
			</g>
		</g>
	</g>
</g>
</svg>
