<?xml version="1.0" encoding="utf-8"?>
<!-- Generator: Adobe Illustrator 16.0.0, SVG Export Plug-In . SVG Version: 6.00 Build 0)  -->
<!DOCTYPE svg PUBLIC "-//W3C//DTD SVG 1.1//EN" "http://www.w3.org/Graphics/SVG/1.1/DTD/svg11.dtd">
<svg version="1.1" id="Capa_1" xmlns="http://www.w3.org/2000/svg" xmlns:xlink="http://www.w3.org/1999/xlink" x="0px" y="0px" viewBox="29 29 91.75 91.75" enable-background="new 29 29 91.75 91.75" xml:space="preserve">
<g>
	<g>
		<g>
			<circle id="SVGID_1_" fill="#FFFFFF" cx="75" cy="75" r="45.912"/>
		</g>
		<g>
			<g>
				<defs>
					<circle id="SVGID_2_" cx="75" cy="75" r="45.912"/>
				</defs>
				<clipPath id="SVGID_3_">
					<use xlink:href="#SVGID_2_"  overflow="visible"/>
				</clipPath>
				<g clip-path="url(#SVGID_3_)">
					<path fill="#CEB39F" d="M47.65,120.742c0.136,0.089,0.29,0.166,0.459,0.233h6.841c0.783-0.126,1.296-0.233,1.296-0.233v-13.726
						l-7.852-0.378C48.394,106.639,45.566,119.365,47.65,120.742z"/>
					<path fill="#E0D0C1" d="M101.345,120.699c-0.143,0.089-0.306,0.166-0.485,0.233h-7.227c-0.828-0.126-1.37-0.233-1.37-0.233
						v-13.725l8.296-0.379C100.559,106.596,103.547,119.322,101.345,120.699z"/>
					<path fill="#E0D0C1" d="M97.209,105.457v-5.449c-0.003-2.492-2.432-2.781-4.182-3.424l-7.26-1.977l-2.57-1.098h0.007
						l-0.184-0.078c-1.092-0.398-1.679-1.391-1.83-2.787v-4.738l5.769-2.638c2.851-1.813,4.045-4.267,4.705-8.125l0.24-1.482
						c2.219,0,3.105-2.617,3.309-5.03c0,0,0.895-5.092-0.383-4.482c-0.668-0.051,1-7.605-0.146-11.161
						c-1.627-5.045-10.221-13.094-19.457-13.094c-0.187,0-0.367,0.009-0.549,0.012c-0.183-0.002-0.361-0.012-0.549-0.012
						c-9.238,0-16.254,7.948-18.2,12.862c-1.948,4.916-1.403,11.394-1.403,11.394c-1.276-0.61-0.383,4.482-0.383,4.482
						c0.204,2.414,1.092,5.03,3.311,5.03l0.239,1.482c0.663,3.858,1.855,6.312,4.705,8.125l5.769,2.638v4.738
						c-0.128,1.178-0.568,2.059-1.355,2.548c-0.067,0.032-0.134,0.067-0.207,0.095l-3.1,1.319l-7.274,1.978
						c-1.756,0.642-4.189,0.931-4.189,3.423v5.449L97.209,105.457L97.209,105.457z"/>
					<path fill="#B58DA9" d="M93.854,108.27l7.188-1.697l-0.958-4.674c-0.437-2.063-3.024-4.226-5.454-5.01l-2.285-1.109
						c-0.029-0.018-0.061-0.034-0.095-0.053c-0.313-0.175-0.762-0.389-1.317-0.637c-1.157-0.519-2.784-1.198-4.592-2.031
						c-1.721,1.234-5.348,9.441-11.798,10.367c-6.451-0.924-10.068-9.132-11.787-10.367c-1.809,0.833-3.423,1.513-4.581,2.031
						c-0.557,0.249-1.005,0.463-1.318,0.637c-0.035,0.019-0.064,0.035-0.095,0.053l-2.463,1.313
						c-0.388,0.229-0.728,0.44-1.028,0.641c-1.98,1.012-3.79,2.772-4.148,4.467l-0.958,4.673l7.09,1.675
						c0.009,0.837,0.02,1.736,0.028,3.036c-1.009,1.583-1.623,3.614-1.623,5.824c0,1.267,0.2,2.471,0.559,3.566h40.665
						c0.36-1.096,0.561-2.299,0.561-3.566c0-2.21-0.612-4.242-1.622-5.824C93.832,110.138,93.846,109.189,93.854,108.27z"/>
					<path fill="#CEB39F" d="M81.189,85.906c0.038-0.027-4.779,9.441-14.366,7.285c0.691-0.521,1.08-0.918,1.207-2.32l0.134-4.965
						C68.164,85.906,74.84,89.431,81.189,85.906z"/>
					<path fill="#A46D4D" d="M75.563,81.543c-1.935,0-3.744-0.335-4.963-0.918c-0.497-0.238-0.625-0.713-0.287-1.062
						c0.337-0.349,1.015-0.438,1.511-0.202c0.856,0.408,2.252,0.652,3.739,0.652c1.484,0,2.881-0.244,3.737-0.652
						c0.498-0.238,1.173-0.148,1.513,0.202c0.338,0.349,0.209,0.823-0.289,1.062C79.305,81.208,77.495,81.543,75.563,81.543z"/>
					<path fill="#B7A292" d="M74.996,73.329c-1.598,0-2.561-1.193-2.561-0.616c0,0.576,0.461,1.674,2.561,1.674
						c2.096,0,2.558-1.097,2.558-1.674C77.553,72.136,76.592,73.329,74.996,73.329z"/>
					<path fill="#623F33" d="M74.995,36.997"/>
					<path fill="#CEB39F" d="M82.199,52.158c0,0-12.554,5.932-19.98,7.003l0.042-14.618c-3.132,2.595-5.362,5.792-6.331,8.237
						c-1.948,4.916-1.403,11.394-1.403,11.394c-1.277-0.61-0.383,4.481-0.383,4.481c0.203,2.413,1.092,5.031,3.31,5.031l0.239,1.482
						c0.664,3.857,1.856,6.312,4.707,8.125l5.767,2.638l2.336,0.902c-6.512-2.812-8.083-8.163-8.083-8.163l-0.249-2.588
						l0.037-13.304c0.625-0.246,1.075-0.317,1.075-0.317c7.303-0.714,20.456-7.036,20.456-7.036c2.511,0.387,4.4,1.794,5.82,3.616
						C88.087,55.821,86.055,52.752,82.199,52.158z"/>
					<path fill="#754A3E" d="M82.199,53.9c0,0-13.154,6.09-20.456,6.778c0,0-5.316,0.786-4.854,6.64
						c0.463,5.854,2.093,13.053,2.444,13.962c0.582,1.503,2.89,13.448-0.657,17.481c0,0,1.697-11.068-1.955-14.314
						c0,0-6.017-9.05-6.635-18.937c0,0-1.823-17.986,9.241-24.295c0,0,13.618-8.412,28.043-1.529c0,0,8.631,3.815,11.451,15.197
						c0,0,1.885,7.742-2.452,17.464c-5.461,12.237-5.246,13.233-5.76,15.346c0,0-0.978,7.428,3.239,11.904
						c0,0-9.934-9.824-5.973-15.775c3.959-5.951,4.484-13.454,4.334-14.796C92.211,69.026,91.148,55.228,82.199,53.9z"/>
					<path fill="#623F33" d="M85.292,65.735c-0.208,0.036-0.436,0.065-0.696,0.003c-0.259-0.062-0.457-0.196-0.457-0.196
						l0.002,0.002c-0.012-0.01-0.029-0.016-0.041-0.024c-0.018-0.013-0.038-0.022-0.057-0.034c-0.042-0.03-0.086-0.056-0.134-0.081
						c-0.041-0.022-0.083-0.044-0.126-0.063c-0.042-0.018-0.087-0.029-0.132-0.042c-0.042-0.012-0.081-0.032-0.124-0.04
						c-0.004-0.001-0.008-0.003-0.012-0.003c-0.021-0.005-0.039,0-0.062-0.004c-0.062-0.008-0.122-0.02-0.187-0.02
						c-0.006,0-0.012,0.001-0.016,0.001c-0.006,0-0.012-0.001-0.017-0.001c-0.743,0-1.347,0.556-1.347,1.242
						c0,0.022,0.006,0.044,0.008,0.066c-0.003,0.024-0.008,0.047-0.008,0.071v1.379c0,0.757,0.619,1.377,1.379,1.377
						c0.758,0,1.379-0.62,1.377-1.377v-1.379c0-0.038-0.008-0.074-0.011-0.111c0.157,0.222,0.271,0.442,0.335,0.594
						c-0.029-0.147-0.273-0.698-0.384-0.969c0.046,0.021,0.2,0.006,0.488-0.122c0.354-0.157,0.515-0.335,0.515-0.335
						S85.5,65.699,85.292,65.735z"/>
					<path fill="#623F33" d="M64.8,65.735c0.208,0.036,0.436,0.065,0.696,0.003c0.259-0.062,0.457-0.196,0.457-0.196l-0.001,0.002
						c0.012-0.01,0.029-0.016,0.042-0.024c0.016-0.013,0.037-0.022,0.056-0.034c0.042-0.03,0.087-0.056,0.134-0.081
						c0.042-0.022,0.083-0.044,0.125-0.063c0.042-0.018,0.087-0.029,0.132-0.042c0.041-0.012,0.081-0.032,0.125-0.04
						c0.003-0.001,0.007-0.003,0.01-0.003c0.022-0.005,0.04,0,0.062-0.004c0.062-0.008,0.123-0.02,0.186-0.02
						c0.005,0,0.011,0.001,0.016,0.001c0.006,0,0.011-0.001,0.017-0.001c0.743,0,1.347,0.556,1.347,1.242
						c0,0.022-0.006,0.044-0.008,0.066c0.002,0.024,0.008,0.047,0.008,0.071v1.379c0,0.757-0.62,1.377-1.379,1.377
						c-0.758,0-1.379-0.62-1.377-1.377v-1.379c0-0.038,0.008-0.074,0.011-0.111c-0.157,0.222-0.271,0.442-0.336,0.594
						c0.03-0.147,0.274-0.698,0.385-0.969c-0.047,0.021-0.201,0.006-0.489-0.122c-0.354-0.157-0.516-0.335-0.516-0.335
						S64.593,65.699,64.8,65.735z"/>
					<path fill="#FFFFFF" d="M91.462,72.475c0.55,0,0.995,0.445,0.995,0.995s-0.445,0.995-0.995,0.995
						c-0.549,0-0.994-0.445-0.994-0.995S90.913,72.475,91.462,72.475z"/>
					<path fill="#FFFFFF" d="M57.749,72.337c0.625,0,1.132,0.507,1.132,1.132S58.374,74.6,57.749,74.6
						c-0.624,0-1.131-0.506-1.131-1.131S57.125,72.337,57.749,72.337z"/>
					<path fill="#D3D3D3" d="M91.804,74.315c-0.557,0-1.009-0.451-1.009-1.008c0-0.328,0.167-0.606,0.409-0.79
						c-0.421,0.121-0.736,0.493-0.736,0.952c0,0.557,0.45,1.009,1.009,1.009c0.229,0,0.43-0.09,0.598-0.218
						C91.986,74.285,91.9,74.315,91.804,74.315z"/>
					<path fill="#D3D3D3" d="M58.138,74.431c-0.634,0-1.148-0.514-1.148-1.147c0-0.373,0.19-0.689,0.466-0.898
						c-0.479,0.137-0.837,0.561-0.837,1.084c0,0.633,0.513,1.147,1.148,1.147c0.26,0,0.489-0.103,0.681-0.249
						C58.346,74.396,58.248,74.431,58.138,74.431z"/>
				</g>
			</g>
		</g>
	</g>
</g>
</svg>
